STARTFONT 2.1
FONT -AmsteinGraphics-DMCP-Bold-R-Normal--56-560-36-38-P-132-ISO10646-1
SIZE 9 173 173
FONTBOUNDINGBOX 17 34 0 -6
STARTPROPERTIES 30
FAMILY_NAME "DMCP"
DEFAULT_CHAR -1
FOUNDRY "AmsteinGraphics"
COPYRIGHT "Copyright (c) 2022 SwissMicros"
CODEPAGE "MS Windows 1252 Western (ANSI)"
ENC_MODE 2
ENC_ID 1
CREATION_YEAR 2022
WEIGHT_NAME "Bold"
SLANT "R"
SETWIDTH_NAME "Normal"
SPACING "P"
WEIGHT 700
HI_VERSION 1
MAC_FONT_STYLE 1
CP_RANGE_1 65535
CP_RANGE_2 65535
FONTNAME_REGISTRY "-"
CHARSET_REGISTRY "ISO10646"
CHARSET_ENCODING "1"
BREAK_CHAR 32
PIXEL_SIZE 22
POINT_SIZE 90
FONT_ASCENT 23
FONT_DESCENT 6
RESOLUTION_X 173
RESOLUTION_Y 173
AVERAGE_WIDTH 132
X_HEIGHT 16
CAP_HEIGHT 22
ENDPROPERTIES
CHARS 289
STARTCHAR space.uni0020
ENCODING 32
SWIDTH 575 0
DWIDTH 17 0
BBX 0 0 0 0
BITMAP
ENDCHAR
STARTCHAR exclam.uni0021
ENCODING 33
SWIDTH 575 0
DWIDTH 17 0
BBX 4 22 7 0
BITMAP
F000
F000
F000
F000
F000
F000
F000
F000
F000
F000
F000
F000
F000
F000
F000
0000
0000
0000
F000
F000
F000
F000
ENDCHAR
STARTCHAR quotedbl.uni0022
ENCODING 34
SWIDTH 575 0
DWIDTH 17 0
BBX 12 8 3 14
BITMAP
F0F0
F0F0
F0F0
F0F0
F0F0
F0F0
F0F0
F0F0
ENDCHAR
STARTCHAR numbersign.uni0023
ENCODING 35
SWIDTH 575 0
DWIDTH 17 0
BBX 17 20 0 0
BITMAP
038E0000
038E0000
038E0000
038E0000
071C0000
3FFF8000
3FFF8000
3FFF8000
0E380000
0E380000
0E380000
0E380000
FFFE0000
FFFE0000
FFFE0000
1C700000
38E00000
38E00000
38E00000
38E00000
ENDCHAR
STARTCHAR dollar.uni0024
ENCODING 36
SWIDTH 575 0
DWIDTH 17 0
BBX 12 26 3 -4
BITMAP
0600
0600
0600
1FC0
7FE0
7FE0
F660
F620
F600
F600
FE00
7F80
7FC0
1FE0
07F0
06F0
06F0
86F0
E6F0
FFE0
FFE0
3F80
0600
0600
0600
0600
ENDCHAR
STARTCHAR percent.uni0025
ENCODING 37
SWIDTH 575 0
DWIDTH 17 0
BBX 16 22 0 0
BITMAP
3C00
7F00
F780
E380
E380
E380
F780
7F07
3E1C
0070
01C0
0700
1C00
7078
00FE
01EF
01C7
01C7
01C7
01EF
00FE
007C
ENDCHAR
STARTCHAR ampersand.uni0026
ENCODING 38
SWIDTH 575 0
DWIDTH 17 0
BBX 16 22 1 0
BITMAP
07E0
1FF0
3FF0
3C10
3C00
3C00
1E00
1E00
0F00
1F80
3F80
7FC7
73C7
F1E7
F1F7
F0FF
F07E
F87E
7C7C
7FFE
3FFE
0FCF
ENDCHAR
STARTCHAR quotesingle.uni0027
ENCODING 39
SWIDTH 575 0
DWIDTH 17 0
BBX 4 8 7 14
BITMAP
F000
F000
F000
F000
F000
F000
F000
F000
ENDCHAR
STARTCHAR parenleft.uni0028
ENCODING 40
SWIDTH 575 0
DWIDTH 17 0
BBX 7 27 5 -4
BITMAP
0E00
1C00
1C00
3C00
3800
3800
7800
7800
7000
F000
F000
F000
F000
F000
F000
F000
F000
F000
7000
7800
7800
7800
3800
3C00
1C00
1C00
0E00
ENDCHAR
STARTCHAR parenright.uni0029
ENCODING 41
SWIDTH 575 0
DWIDTH 17 0
BBX 7 27 5 -4
BITMAP
E000
7000
7000
7800
3800
3800
3C00
3C00
1C00
1E00
1E00
1E00
1E00
1E00
1E00
1E00
1E00
1E00
1C00
3C00
3C00
3800
3800
7800
7000
7000
E000
ENDCHAR
STARTCHAR asterisk.uni002A
ENCODING 42
SWIDTH 575 0
DWIDTH 17 0
BBX 14 14 1 8
BITMAP
0300
0300
4308
F33C
FB7C
3FF0
0FC0
0FC0
3FF0
FB7C
F33C
4308
0300
0300
ENDCHAR
STARTCHAR plus.uni002B
ENCODING 43
SWIDTH 575 0
DWIDTH 17 0
BBX 15 15 1 2
BITMAP
0380
0380
0380
0380
0380
0380
FFFE
FFFE
FFFE
0380
0380
0380
0380
0380
0380
ENDCHAR
STARTCHAR comma.uni002C
ENCODING 44
SWIDTH 575 0
DWIDTH 17 0
BBX 6 10 5 -5
BITMAP
7C00
7C00
7C00
7C00
7C00
7800
7800
F000
F000
E000
ENDCHAR
STARTCHAR hyphen.uni002D
ENCODING 45
SWIDTH 575 0
DWIDTH 17 0
BBX 9 4 4 7
BITMAP
FF80
FF80
FF80
FF80
ENDCHAR
STARTCHAR period.uni002E
ENCODING 46
SWIDTH 575 0
DWIDTH 17 0
BBX 5 5 6 0
BITMAP
F800
F800
F800
F800
F800
ENDCHAR
STARTCHAR slash.uni002F
ENCODING 47
SWIDTH 575 0
DWIDTH 17 0
BBX 15 25 1 -3
BITMAP
000E
000E
001C
001C
0038
0038
0070
0070
00E0
00E0
01C0
01C0
0380
0380
0700
0700
0E00
0E00
1C00
1C00
3800
3800
7000
7000
E000
ENDCHAR
STARTCHAR zero.uni0030
ENCODING 48
SWIDTH 575 0
DWIDTH 17 0
BBX 13 22 2 0
BITMAP
0F80
1FC0
3FE0
78F0
78F0
7070
F0F8
F1F8
F3F8
F3F8
F778
FE78
FC78
FC78
F878
F078
7070
78F0
78F0
3FE0
1FC0
0F80
ENDCHAR
STARTCHAR one.uni0031
ENCODING 49
SWIDTH 575 0
DWIDTH 17 0
BBX 14 22 2 0
BITMAP
1F80
7F80
7F80
6780
0780
0780
0780
0780
0780
0780
0780
0780
0780
0780
0780
0780
0780
0780
0780
FFFC
FFFC
FFFC
ENDCHAR
STARTCHAR two.uni0032
ENCODING 50
SWIDTH 575 0
DWIDTH 17 0
BBX 13 22 2 0
BITMAP
3F80
FFE0
FFF0
E0F0
8078
0078
0078
0078
00F8
00F0
01F0
03E0
03C0
0780
0F00
1F00
3E00
7C00
F800
FFF8
FFF8
FFF8
ENDCHAR
STARTCHAR three.uni0033
ENCODING 51
SWIDTH 575 0
DWIDTH 17 0
BBX 13 22 2 0
BITMAP
1FC0
7FE0
7FF0
70F8
4078
0078
0078
00F0
0FE0
0F80
0FE0
00F0
00F8
0078
0078
0078
0078
80F8
E1F0
FFF0
FFE0
3F80
ENDCHAR
STARTCHAR four.uni0034
ENCODING 52
SWIDTH 575 0
DWIDTH 17 0
BBX 13 22 2 0
BITMAP
01E0
03E0
03E0
07E0
07E0
0FE0
1FE0
1DE0
39E0
39E0
71E0
71E0
E1E0
E1E0
FFF8
FFF8
FFF8
01E0
01E0
01E0
01E0
01E0
ENDCHAR
STARTCHAR five.uni0035
ENCODING 53
SWIDTH 575 0
DWIDTH 17 0
BBX 13 22 2 0
BITMAP
7FF0
7FF0
7FF0
7800
7800
7800
7800
7800
7F80
7FE0
7FF0
41F0
00F8
0078
0078
0078
0078
80F8
C1F0
FFF0
FFE0
3F80
ENDCHAR
STARTCHAR six.uni0036
ENCODING 54
SWIDTH 575 0
DWIDTH 17 0
BBX 13 22 2 0
BITMAP
07E0
1FF0
3FF0
3C30
7810
7800
F000
F7C0
FFE0
FFF0
F8F0
F0F8
F078
F078
F078
F078
F078
70F8
78F0
3FF0
3FE0
0F80
ENDCHAR
STARTCHAR seven.uni0037
ENCODING 55
SWIDTH 575 0
DWIDTH 17 0
BBX 13 22 2 0
BITMAP
FFF8
FFF8
FFF8
0078
00F8
00F0
00F0
01E0
01E0
03E0
03C0
03C0
07C0
0780
0780
0F80
0F00
0F00
1F00
1E00
1E00
3C00
ENDCHAR
STARTCHAR eight.uni0038
ENCODING 56
SWIDTH 575 0
DWIDTH 17 0
BBX 13 22 2 0
BITMAP
0F80
1FC0
3FE0
7DF0
78F0
78F0
78F0
78F0
3DE0
1FE0
0F80
3FE0
78F0
F078
F078
F078
F078
F078
F8F8
7FF0
3FE0
1FC0
ENDCHAR
STARTCHAR nine.uni0039
ENCODING 57
SWIDTH 575 0
DWIDTH 17 0
BBX 13 22 2 0
BITMAP
0F80
3FC0
7FE0
78F0
F070
F070
F078
F078
F078
F078
F078
78F8
7FF8
3FF8
1F78
0078
00F0
40F0
61E0
7FE0
7FC0
3F00
ENDCHAR
STARTCHAR colon.uni003A
ENCODING 58
SWIDTH 575 0
DWIDTH 17 0
BBX 5 16 6 0
BITMAP
F800
F800
F800
F800
F800
0000
0000
0000
0000
0000
0000
F800
F800
F800
F800
F800
ENDCHAR
STARTCHAR semicolon.uni003B
ENCODING 59
SWIDTH 575 0
DWIDTH 17 0
BBX 6 21 5 -5
BITMAP
7C00
7C00
7C00
7C00
7C00
0000
0000
0000
0000
0000
0000
7C00
7C00
7C00
7C00
7C00
7800
7800
F000
F000
E000
ENDCHAR
STARTCHAR less.uni003C
ENCODING 60
SWIDTH 575 0
DWIDTH 17 0
BBX 14 16 1 1
BITMAP
0004
001C
00FC
03FC
0FF0
3FC0
FE00
F800
F800
FE00
3FC0
0FF0
03FC
00FC
001C
0004
ENDCHAR
STARTCHAR equal.uni003D
ENCODING 61
SWIDTH 575 0
DWIDTH 17 0
BBX 14 9 1 5
BITMAP
FFFC
FFFC
FFFC
0000
0000
0000
FFFC
FFFC
FFFC
ENDCHAR
STARTCHAR greater.uni003E
ENCODING 62
SWIDTH 575 0
DWIDTH 17 0
BBX 14 16 1 1
BITMAP
8000
E000
FC00
FF00
3FC0
0FF0
01FC
007C
007C
01FC
0FF0
3FC0
FF00
FC00
E000
8000
ENDCHAR
STARTCHAR question.uni003F
ENCODING 63
SWIDTH 575 0
DWIDTH 17 0
BBX 11 22 3 0
BITMAP
1F00
7FC0
FFC0
C3E0
81E0
01E0
01E0
03C0
0780
0F00
1E00
1E00
1E00
1E00
1E00
1E00
0000
0000
1E00
1E00
1E00
1E00
ENDCHAR
STARTCHAR at.uni0040
ENCODING 64
SWIDTH 575 0
DWIDTH 17 0
BBX 16 25 0 -5
BITMAP
03F0
07FC
1FFE
3E1E
3C0F
7807
70F7
71FF
E3FF
E78F
E707
E707
E707
E707
E707
E78F
F3FF
71FF
70F7
7800
3C00
1F06
0FFE
07FF
01FC
ENDCHAR
STARTCHAR A.uni0041
ENCODING 65
SWIDTH 575 0
DWIDTH 17 0
BBX 16 22 0 0
BITMAP
07E0
07E0
07E0
07E0
0FF0
0FF0
0E70
0E70
1E78
1E78
1E78
1C38
3C3C
3FFC
3FFC
3FFC
781E
781E
781E
781E
F00F
F00F
ENDCHAR
STARTCHAR B.uni0042
ENCODING 66
SWIDTH 575 0
DWIDTH 17 0
BBX 14 22 2 0
BITMAP
FFC0
FFF0
FFF0
F0F8
F078
F078
F078
F0F0
FFF0
FF80
FFF0
F078
F078
F03C
F03C
F03C
F03C
F03C
F07C
FFF8
FFF0
FFC0
ENDCHAR
STARTCHAR C.uni0043
ENCODING 67
SWIDTH 575 0
DWIDTH 17 0
BBX 13 22 2 0
BITMAP
03F0
0FF8
3FF8
3E38
7C08
7800
F800
F000
F000
F000
F000
F000
F000
F000
F000
7800
7800
7C08
3E38
3FF8
0FF8
03F0
ENDCHAR
STARTCHAR D.uni0044
ENCODING 68
SWIDTH 575 0
DWIDTH 17 0
BBX 14 22 2 0
BITMAP
FF00
FFC0
FFF0
F1F0
F078
F078
F03C
F03C
F03C
F03C
F03C
F03C
F03C
F03C
F03C
F03C
F078
F078
F1F0
FFF0
FFE0
FF00
ENDCHAR
STARTCHAR E.uni0045
ENCODING 69
SWIDTH 575 0
DWIDTH 17 0
BBX 13 22 2 0
BITMAP
FFF8
FFF8
FFF8
F000
F000
F000
F000
F000
FFF0
FFF0
FFF0
F000
F000
F000
F000
F000
F000
F000
F000
FFF8
FFF8
FFF8
ENDCHAR
STARTCHAR F.uni0046
ENCODING 70
SWIDTH 575 0
DWIDTH 17 0
BBX 13 22 2 0
BITMAP
FFF8
FFF8
FFF8
F000
F000
F000
F000
F000
FFF0
FFF0
FFF0
F000
F000
F000
F000
F000
F000
F000
F000
F000
F000
F000
ENDCHAR
STARTCHAR G.uni0047
ENCODING 71
SWIDTH 575 0
DWIDTH 17 0
BBX 14 22 2 0
BITMAP
07F0
1FF8
3FF8
3E18
7808
7800
F800
F000
F000
F000
F000
F0FC
F0FC
F0FC
F01C
781C
781C
7C1C
3E1C
3FFC
0FFC
07F0
ENDCHAR
STARTCHAR H.uni0048
ENCODING 72
SWIDTH 575 0
DWIDTH 17 0
BBX 13 22 2 0
BITMAP
F078
F078
F078
F078
F078
F078
F078
F078
FFF8
FFF8
FFF8
F078
F078
F078
F078
F078
F078
F078
F078
F078
F078
F078
ENDCHAR
STARTCHAR I.uni0049
ENCODING 73
SWIDTH 575 0
DWIDTH 17 0
BBX 12 22 2 0
BITMAP
FFF0
FFF0
FFF0
0F00
0F00
0F00
0F00
0F00
0F00
0F00
0F00
0F00
0F00
0F00
0F00
0F00
0F00
0F00
0F00
FFF0
FFF0
FFF0
ENDCHAR
STARTCHAR J.uni004A
ENCODING 74
SWIDTH 575 0
DWIDTH 17 0
BBX 12 22 1 0
BITMAP
1FF0
1FF0
1FF0
00F0
00F0
00F0
00F0
00F0
00F0
00F0
00F0
00F0
00F0
00F0
00F0
00F0
80F0
C1F0
E1E0
FFE0
7FC0
1F80
ENDCHAR
STARTCHAR K.uni004B
ENCODING 75
SWIDTH 575 0
DWIDTH 17 0
BBX 15 22 2 0
BITMAP
F03E
F07C
F0F8
F0F0
F1F0
F3E0
F3C0
F780
FF80
FF80
FF80
FFC0
FBC0
FBE0
F1E0
F1F0
F0F0
F0F8
F078
F07C
F03C
F03E
ENDCHAR
STARTCHAR L.uni004C
ENCODING 76
SWIDTH 575 0
DWIDTH 17 0
BBX 13 22 3 0
BITMAP
F000
F000
F000
F000
F000
F000
F000
F000
F000
F000
F000
F000
F000
F000
F000
F000
F000
F000
F000
FFF8
FFF8
FFF8
ENDCHAR
STARTCHAR M.uni004D
ENCODING 77
SWIDTH 575 0
DWIDTH 17 0
BBX 14 22 1 0
BITMAP
F87C
F87C
F87C
F87C
FCFC
FCFC
FCFC
FCFC
FFFC
FFFC
F7BC
F7BC
F7BC
F7BC
F33C
F33C
F33C
F03C
F03C
F03C
F03C
F03C
ENDCHAR
STARTCHAR N.uni004E
ENCODING 78
SWIDTH 575 0
DWIDTH 17 0
BBX 14 22 2 0
BITMAP
F83C
F83C
FC3C
FC3C
FC3C
FE3C
FE3C
FE3C
F73C
F73C
F73C
F3BC
F3BC
F3BC
F1FC
F1FC
F1FC
F0FC
F0FC
F0FC
F07C
F07C
ENDCHAR
STARTCHAR O.uni004F
ENCODING 79
SWIDTH 575 0
DWIDTH 17 0
BBX 14 22 1 0
BITMAP
0FC0
1FE0
3FF0
7CF8
7878
7878
F03C
F03C
F03C
F03C
F03C
F03C
F03C
F03C
F03C
F03C
7878
7878
7CF8
3FF0
1FE0
0FC0
ENDCHAR
STARTCHAR P.uni0050
ENCODING 80
SWIDTH 575 0
DWIDTH 17 0
BBX 13 22 2 0
BITMAP
FF80
FFE0
FFF0
F0F0
F078
F078
F078
F078
F078
F078
F0F0
FFF0
FFE0
FF80
F000
F000
F000
F000
F000
F000
F000
F000
ENDCHAR
STARTCHAR Q.uni0051
ENCODING 81
SWIDTH 575 0
DWIDTH 17 0
BBX 14 26 1 -4
BITMAP
0FC0
1FE0
3FF0
7CF8
7878
7878
F03C
F03C
F03C
F03C
F03C
F03C
F03C
F03C
F03C
F03C
7078
7878
7CF8
3FF0
1FF0
0FE0
00F0
0078
0070
0020
ENDCHAR
STARTCHAR R.uni0052
ENCODING 82
SWIDTH 575 0
DWIDTH 17 0
BBX 15 22 2 0
BITMAP
FF80
FFE0
FFF0
F0F8
F078
F078
F078
F078
F078
F0F0
FFF0
FFC0
FFC0
F3E0
F1F0
F0F0
F0F0
F078
F078
F07C
F03C
F03E
ENDCHAR
STARTCHAR S.uni0053
ENCODING 83
SWIDTH 575 0
DWIDTH 17 0
BBX 13 22 2 0
BITMAP
0FC0
3FF0
7FF0
F870
F030
F000
F800
FC00
7F80
7FC0
3FF0
07F0
01F8
00F8
0078
0078
8078
C078
F0F8
FFF0
7FE0
1F80
ENDCHAR
STARTCHAR T.uni0054
ENCODING 84
SWIDTH 575 0
DWIDTH 17 0
BBX 14 22 1 0
BITMAP
FFFC
FFFC
FFFC
0780
0780
0780
0780
0780
0780
0780
0780
0780
0780
0780
0780
0780
0780
0780
0780
0780
0780
0780
ENDCHAR
STARTCHAR U.uni0055
ENCODING 85
SWIDTH 575 0
DWIDTH 17 0
BBX 14 22 2 0
BITMAP
F03C
F03C
F03C
F03C
F03C
F03C
F03C
F03C
F03C
F03C
F03C
F03C
F03C
F03C
F03C
F03C
F03C
F03C
7878
7FF8
3FF0
0FC0
ENDCHAR
STARTCHAR V.uni0056
ENCODING 86
SWIDTH 575 0
DWIDTH 17 0
BBX 15 22 1 0
BITMAP
F01E
F01E
783C
783C
783C
783C
783C
3838
3C78
3C78
3C78
3C78
1C70
1EF0
1EF0
1EF0
0EE0
0EE0
0FE0
0FE0
0FE0
07C0
ENDCHAR
STARTCHAR W.uni0057
ENCODING 87
SWIDTH 575 0
DWIDTH 17 0
BBX 17 22 0 0
BITMAP
F0078000
F0078000
F0078000
F0078000
F0078000
71C70000
71C70000
71C70000
73E70000
73E70000
7BEF0000
7B6F0000
7B6F0000
3F7F0000
3F7E0000
3E3E0000
3E3E0000
3E3E0000
3E3E0000
3C1E0000
3C1E0000
3C1E0000
ENDCHAR
STARTCHAR X.uni0058
ENCODING 88
SWIDTH 575 0
DWIDTH 17 0
BBX 16 22 0 0
BITMAP
F81F
781E
781E
3C3C
3C3C
1E78
0E70
0FF0
07E0
07E0
03C0
03C0
07E0
0FF0
0FF0
1E78
1E78
3C3C
3C3C
781E
781E
F81F
ENDCHAR
STARTCHAR Y.uni0059
ENCODING 89
SWIDTH 575 0
DWIDTH 17 0
BBX 16 22 0 0
BITMAP
F81F
781E
781E
3C3C
3C3C
3E7C
1E78
1E78
0FF0
0FF0
07E0
07E0
03C0
03C0
03C0
03C0
03C0
03C0
03C0
03C0
03C0
03C0
ENDCHAR
STARTCHAR Z.uni005A
ENCODING 90
SWIDTH 575 0
DWIDTH 17 0
BBX 14 22 2 0
BITMAP
FFFC
FFFC
FFFC
007C
007C
00F8
01F0
01F0
03E0
03C0
07C0
0F80
0F00
1F00
3E00
3C00
7C00
F800
F000
FFFC
FFFC
FFFC
ENDCHAR
STARTCHAR bracketleft.uni005B
ENCODING 91
SWIDTH 575 0
DWIDTH 17 0
BBX 7 27 6 -4
BITMAP
FE00
FE00
FE00
F000
F000
F000
F000
F000
F000
F000
F000
F000
F000
F000
F000
F000
F000
F000
F000
F000
F000
F000
F000
F000
FE00
FE00
FE00
ENDCHAR
STARTCHAR backslash.uni005C
ENCODING 92
SWIDTH 575 0
DWIDTH 17 0
BBX 15 25 1 -3
BITMAP
E000
E000
7000
7000
3800
3800
1C00
1C00
0E00
0E00
0700
0700
0380
0380
01C0
01C0
00E0
00E0
0070
0070
0038
0038
001C
001C
000E
ENDCHAR
STARTCHAR bracketright.uni005D
ENCODING 93
SWIDTH 575 0
DWIDTH 17 0
BBX 7 27 4 -4
BITMAP
FE00
FE00
FE00
1E00
1E00
1E00
1E00
1E00
1E00
1E00
1E00
1E00
1E00
1E00
1E00
1E00
1E00
1E00
1E00
1E00
1E00
1E00
1E00
1E00
FE00
FE00
FE00
ENDCHAR
STARTCHAR asciicircum.uni005E
ENCODING 94
SWIDTH 575 0
DWIDTH 17 0
BBX 15 8 1 14
BITMAP
07C0
07C0
0FE0
1FF0
1EF0
3C78
783C
F01E
ENDCHAR
STARTCHAR underscore.uni005F
ENCODING 95
SWIDTH 575 0
DWIDTH 17 0
BBX 17 3 0 -6
BITMAP
FFFF8000
FFFF8000
FFFF8000
ENDCHAR
STARTCHAR grave.uni0060
ENCODING 96
SWIDTH 575 0
DWIDTH 17 0
BBX 8 6 3 18
BITMAP
F000
7800
3C00
1C00
0E00
0700
ENDCHAR
STARTCHAR a.uni0061
ENCODING 97
SWIDTH 575 0
DWIDTH 17 0
BBX 14 16 1 0
BITMAP
1FE0
3FF8
3FF8
307C
003C
1FFC
3FFC
7FFC
F83C
F03C
F03C
F07C
F8FC
7FFC
7FBC
1F3C
ENDCHAR
STARTCHAR b.uni0062
ENCODING 98
SWIDTH 575 0
DWIDTH 17 0
BBX 14 23 2 0
BITMAP
F000
F000
F000
F000
F000
F000
F000
F3E0
F7F0
FFF8
FCF8
F87C
F03C
F03C
F03C
F03C
F03C
F03C
F87C
FCF8
FFF8
F7F0
F3E0
ENDCHAR
STARTCHAR c.uni0063
ENCODING 99
SWIDTH 575 0
DWIDTH 17 0
BBX 12 16 2 0
BITMAP
0FE0
1FF0
3FF0
7C10
7800
F000
F000
F000
F000
F000
F000
7800
7C10
3FF0
1FF0
0FE0
ENDCHAR
STARTCHAR d.uni0064
ENCODING 100
SWIDTH 575 0
DWIDTH 17 0
BBX 14 23 1 0
BITMAP
003C
003C
003C
003C
003C
003C
003C
1F3C
3FBC
7FFC
7CFC
F87C
F03C
F03C
F03C
F03C
F03C
F03C
F87C
7CFC
7FFC
3FBC
1F3C
ENDCHAR
STARTCHAR e.uni0065
ENCODING 101
SWIDTH 575 0
DWIDTH 17 0
BBX 14 16 1 0
BITMAP
0FC0
1FE0
3FF0
7C78
7878
F03C
F03C
FFFC
FFFC
FFFC
F000
F000
7818
7FF8
3FF8
0FE0
ENDCHAR
STARTCHAR f.uni0066
ENCODING 102
SWIDTH 575 0
DWIDTH 17 0
BBX 13 23 2 0
BITMAP
01F8
07F8
07F8
0F80
0F00
0F00
0F00
FFF8
FFF8
FFF8
0F00
0F00
0F00
0F00
0F00
0F00
0F00
0F00
0F00
0F00
0F00
0F00
0F00
ENDCHAR
STARTCHAR g.uni0067
ENCODING 103
SWIDTH 575 0
DWIDTH 17 0
BBX 14 22 1 -6
BITMAP
0F3C
3FFC
7FFC
7CFC
F87C
F03C
F03C
F03C
F03C
F03C
F03C
F87C
7CFC
7FFC
3FFC
0F3C
003C
003C
2078
3FF8
3FF0
1FC0
ENDCHAR
STARTCHAR h.uni0068
ENCODING 104
SWIDTH 575 0
DWIDTH 17 0
BBX 12 23 2 0
BITMAP
F000
F000
F000
F000
F000
F000
F000
F3C0
FFE0
FFE0
F9F0
F0F0
F0F0
F0F0
F0F0
F0F0
F0F0
F0F0
F0F0
F0F0
F0F0
F0F0
F0F0
ENDCHAR
STARTCHAR i.uni0069
ENCODING 105
SWIDTH 575 0
DWIDTH 17 0
BBX 14 24 2 0
BITMAP
0780
0780
0780
0780
0780
0000
0000
0000
7F80
7F80
7F80
0780
0780
0780
0780
0780
0780
0780
0780
0780
0780
FFFC
FFFC
FFFC
ENDCHAR
STARTCHAR j.uni006A
ENCODING 106
SWIDTH 575 0
DWIDTH 17 0
BBX 10 30 2 -6
BITMAP
03C0
03C0
03C0
03C0
03C0
0000
0000
0000
3FC0
3FC0
3FC0
03C0
03C0
03C0
03C0
03C0
03C0
03C0
03C0
03C0
03C0
03C0
03C0
03C0
03C0
03C0
07C0
FF80
FF80
FE00
ENDCHAR
STARTCHAR k.uni006B
ENCODING 107
SWIDTH 575 0
DWIDTH 17 0
BBX 14 23 2 0
BITMAP
F000
F000
F000
F000
F000
F000
F000
F0F8
F1F0
F1E0
F3C0
F780
FF00
FF00
FF80
FF80
F3C0
F3E0
F1E0
F0F0
F0F0
F078
F07C
ENDCHAR
STARTCHAR l.uni006C
ENCODING 108
SWIDTH 575 0
DWIDTH 17 0
BBX 14 23 1 0
BITMAP
FF00
FF00
FF00
0F00
0F00
0F00
0F00
0F00
0F00
0F00
0F00
0F00
0F00
0F00
0F00
0F00
0F00
0F00
0F00
0F80
07FC
07FC
01FC
ENDCHAR
STARTCHAR m.uni006D
ENCODING 109
SWIDTH 575 0
DWIDTH 17 0
BBX 15 16 1 0
BITMAP
EE78
FF7C
FFFE
F39E
F39E
F39E
F39E
F39E
F39E
F39E
F39E
F39E
F39E
F39E
F39E
F39E
ENDCHAR
STARTCHAR n.uni006E
ENCODING 110
SWIDTH 575 0
DWIDTH 17 0
BBX 12 16 2 0
BITMAP
F3C0
FFE0
FFE0
F9F0
F0F0
F0F0
F0F0
F0F0
F0F0
F0F0
F0F0
F0F0
F0F0
F0F0
F0F0
F0F0
ENDCHAR
STARTCHAR o.uni006F
ENCODING 111
SWIDTH 575 0
DWIDTH 17 0
BBX 14 16 1 0
BITMAP
0FC0
1FE0
3FF0
7CF8
7878
F03C
F03C
F03C
F03C
F03C
F03C
7878
7CF8
3FF0
1FE0
0FC0
ENDCHAR
STARTCHAR p.uni0070
ENCODING 112
SWIDTH 575 0
DWIDTH 17 0
BBX 14 22 2 -6
BITMAP
F3E0
F7F0
FFF8
FCF8
F87C
F03C
F03C
F03C
F03C
F03C
F03C
F87C
FCF8
FFF8
F7F0
F3E0
F000
F000
F000
F000
F000
F000
ENDCHAR
STARTCHAR q.uni0071
ENCODING 113
SWIDTH 575 0
DWIDTH 17 0
BBX 14 22 1 -6
BITMAP
1F3C
3FBC
7FFC
7CFC
F87C
F03C
F03C
F03C
F03C
F03C
F03C
F87C
7CFC
7FFC
3FBC
1F3C
003C
003C
003C
003C
003C
003C
ENDCHAR
STARTCHAR r.uni0072
ENCODING 114
SWIDTH 575 0
DWIDTH 17 0
BBX 12 16 4 0
BITMAP
F3E0
F7F0
FFF0
FC30
F800
F000
F000
F000
F000
F000
F000
F000
F000
F000
F000
F000
ENDCHAR
STARTCHAR s.uni0073
ENCODING 115
SWIDTH 575 0
DWIDTH 17 0
BBX 12 16 2 0
BITMAP
1FC0
7FE0
FFE0
F820
F000
F800
FF00
7FC0
3FE0
07F0
00F0
00F0
C1F0
FFF0
FFE0
3F80
ENDCHAR
STARTCHAR t.uni0074
ENCODING 116
SWIDTH 575 0
DWIDTH 17 0
BBX 13 21 1 0
BITMAP
0F00
0F00
0F00
0F00
0F00
FFF8
FFF8
FFF8
0F00
0F00
0F00
0F00
0F00
0F00
0F00
0F00
0F00
0F00
0FF8
07F8
03F8
ENDCHAR
STARTCHAR u.uni0075
ENCODING 117
SWIDTH 575 0
DWIDTH 17 0
BBX 12 16 2 0
BITMAP
F0F0
F0F0
F0F0
F0F0
F0F0
F0F0
F0F0
F0F0
F0F0
F0F0
F0F0
F0F0
F9F0
FFF0
7FF0
3CF0
ENDCHAR
STARTCHAR v.uni0076
ENCODING 118
SWIDTH 575 0
DWIDTH 17 0
BBX 15 16 1 0
BITMAP
F01E
F01E
783C
783C
783C
3C78
3C78
3C78
1C70
1EF0
1EF0
0EE0
0EE0
0FE0
07C0
07C0
ENDCHAR
STARTCHAR w.uni0077
ENCODING 119
SWIDTH 575 0
DWIDTH 17 0
BBX 17 16 0 0
BITMAP
E0038000
F0078000
F0078000
70070000
71C70000
71C70000
73E70000
73EF0000
7B6F0000
3B6E0000
3B6E0000
3F7E0000
3E3E0000
3E3E0000
1E3C0000
1E3C0000
ENDCHAR
STARTCHAR x.uni0078
ENCODING 120
SWIDTH 575 0
DWIDTH 17 0
BBX 15 16 1 0
BITMAP
F83E
7C7C
3C78
3EF8
1EF0
0FE0
07C0
07C0
07C0
0FE0
0FE0
1EF0
3E78
3C78
783C
F83E
ENDCHAR
STARTCHAR y.uni0079
ENCODING 121
SWIDTH 575 0
DWIDTH 17 0
BBX 15 22 1 -6
BITMAP
F01E
783C
783C
783C
3C78
3C78
3C78
1EF0
1EF0
0EF0
0FE0
0FE0
07E0
07C0
07C0
03C0
0780
0780
0F80
7F00
7E00
7C00
ENDCHAR
STARTCHAR z.uni007A
ENCODING 122
SWIDTH 575 0
DWIDTH 17 0
BBX 13 16 2 0
BITMAP
FFF8
FFF8
FFF8
00F8
01F0
03E0
03C0
0780
0F00
1F00
3E00
7C00
F800
FFF8
FFF8
FFF8
ENDCHAR
STARTCHAR braceleft.uni007B
ENCODING 123
SWIDTH 575 0
DWIDTH 17 0
BBX 12 28 3 -5
BITMAP
03F0
07F0
0FF0
0F80
0F00
0F00
0F00
0F00
0F00
0F00
0F00
1F00
FE00
F800
FE00
1F00
0F00
0F00
0F00
0F00
0F00
0F00
0F00
0F00
0F80
0FF0
07F0
03F0
ENDCHAR
STARTCHAR bar.uni007C
ENCODING 124
SWIDTH 575 0
DWIDTH 17 0
BBX 3 29 7 -6
BITMAP
E000
E000
E000
E000
E000
E000
E000
E000
E000
E000
E000
E000
E000
E000
E000
E000
E000
E000
E000
E000
E000
E000
E000
E000
E000
E000
E000
E000
E000
ENDCHAR
STARTCHAR braceright.uni007D
ENCODING 125
SWIDTH 575 0
DWIDTH 17 0
BBX 12 28 3 -5
BITMAP
FC00
FE00
FF00
1F00
0F00
0F00
0F00
0F00
0F00
0F00
0F00
0F80
07F0
01F0
07F0
0F80
0F00
0F00
0F00
0F00
0F00
0F00
0F00
0F00
1F00
FF00
FE00
FC00
ENDCHAR
STARTCHAR asciitilde.uni007E
ENCODING 126
SWIDTH 575 0
DWIDTH 17 0
BBX 14 5 1 7
BITMAP
3C00
FF0C
FFFC
C3FC
00F0
ENDCHAR
STARTCHAR nbsp.uni00A0
ENCODING 160
SWIDTH 575 0
DWIDTH 17 0
BBX 0 0 0 0
BITMAP
ENDCHAR
STARTCHAR exclamdown.uni00A1
ENCODING 161
SWIDTH 575 0
DWIDTH 17 0
BBX 4 22 7 0
BITMAP
F000
F000
F000
F000
0000
0000
0000
F000
F000
F000
F000
F000
F000
F000
F000
F000
F000
F000
F000
F000
F000
F000
ENDCHAR
STARTCHAR cent.uni00A2
ENCODING 162
SWIDTH 575 0
DWIDTH 17 0
BBX 12 24 2 -4
BITMAP
0180
0180
0180
0180
07E0
1FF0
3FF0
7D90
7980
F180
F180
F180
F180
F180
F180
7980
7D90
3FF0
1FF0
07E0
0180
0180
0180
0180
ENDCHAR
STARTCHAR sterling.uni00A3
ENCODING 163
SWIDTH 575 0
DWIDTH 17 0
BBX 14 22 2 0
BITMAP
03F0
07F8
0FF8
0F18
1E00
1E00
1E00
1E00
1E00
1E00
FFF0
FFF0
FFF0
1E00
1E00
1E00
1E00
1E00
1E00
FFFC
FFFC
FFFC
ENDCHAR
STARTCHAR currency.uni00A4
ENCODING 164
SWIDTH 575 0
DWIDTH 17 0
BBX 13 14 2 2
BITMAP
4010
E038
7770
3FE0
18C0
3060
3060
3060
3060
18C0
3FE0
7770
E038
4010
ENDCHAR
STARTCHAR yen.uni00A5
ENCODING 165
SWIDTH 575 0
DWIDTH 17 0
BBX 16 22 0 0
BITMAP
F81F
781E
781E
7C3E
3C3C
3C3C
1E78
1E78
FFFF
FFFF
FFFF
07E0
03C0
FFFF
FFFF
FFFF
03C0
03C0
03C0
03C0
03C0
03C0
ENDCHAR
STARTCHAR brokenbar.uni00A6
ENCODING 166
SWIDTH 575 0
DWIDTH 17 0
BBX 3 26 7 -5
BITMAP
E000
E000
E000
E000
E000
E000
E000
E000
E000
E000
E000
0000
0000
0000
0000
E000
E000
E000
E000
E000
E000
E000
E000
E000
E000
E000
ENDCHAR
STARTCHAR section.uni00A7
ENCODING 167
SWIDTH 575 0
DWIDTH 17 0
BBX 12 25 2 -3
BITMAP
1F80
3FC0
7FC0
7840
7800
7800
7C00
3E00
3F00
7FC0
F3E0
F1F0
F0F0
F8F0
7CF0
3FE0
1FC0
07C0
03E0
01E0
01E0
41E0
7FE0
7FC0
3F00
ENDCHAR
STARTCHAR dieresis.uni00A8
ENCODING 168
SWIDTH 575 0
DWIDTH 17 0
BBX 8 4 4 19
BITMAP
E700
E700
E700
E700
ENDCHAR
STARTCHAR copyright.uni00A9
ENCODING 169
SWIDTH 575 0
DWIDTH 17 0
BBX 17 18 0 2
BITMAP
03E00000
0FF80000
1C1C0000
380E0000
71E70000
67F30000
C7118000
CE018000
CE018000
CE018000
CE018000
C7118000
67F30000
71E70000
380E0000
1C1C0000
0FF80000
03E00000
ENDCHAR
STARTCHAR ordfeminine.uni00AA
ENCODING 170
SWIDTH 575 0
DWIDTH 17 0
BBX 10 15 4 7
BITMAP
3F00
7F80
4380
01C0
01C0
3FC0
7FC0
F1C0
E1C0
E3C0
7FC0
3DC0
0000
7FC0
7FC0
ENDCHAR
STARTCHAR guillemotleft.uni00AB
ENCODING 171
SWIDTH 575 0
DWIDTH 17 0
BBX 12 13 2 3
BITMAP
0410
0C30
1C70
3CF0
79E0
F3C0
C300
F3C0
79E0
3CF0
1C70
0C30
0410
ENDCHAR
STARTCHAR logicalnot.uni00AC
ENCODING 172
SWIDTH 575 0
DWIDTH 17 0
BBX 14 8 1 5
BITMAP
FFFC
FFFC
FFFC
001C
001C
001C
001C
001C
ENDCHAR
STARTCHAR hyphensoft.uni00AD
ENCODING 173
SWIDTH 575 0
DWIDTH 17 0
BBX 9 4 4 7
BITMAP
FF80
FF80
FF80
FF80
ENDCHAR
STARTCHAR registered.uni00AE
ENCODING 174
SWIDTH 575 0
DWIDTH 17 0
BBX 17 18 0 2
BITMAP
03E00000
0FF80000
1C1C0000
380E0000
70070000
67E30000
C7F18000
C6318000
C7F18000
C7E18000
C6618000
C6318000
663B0000
70070000
300E0000
1C1C0000
0FF80000
03E00000
ENDCHAR
STARTCHAR macron.uni00AF
ENCODING 175
SWIDTH 575 0
DWIDTH 17 0
BBX 9 3 4 20
BITMAP
FF80
FF80
FF80
ENDCHAR
STARTCHAR degree.uni00B0
ENCODING 176
SWIDTH 575 0
DWIDTH 17 0
BBX 9 10 4 12
BITMAP
1C00
7F00
6300
C180
C180
C180
C180
6300
7F00
3C00
ENDCHAR
STARTCHAR plusminus.uni00B1
ENCODING 177
SWIDTH 575 0
DWIDTH 17 0
BBX 15 19 1 0
BITMAP
0380
0380
0380
0380
0380
FFFE
FFFE
FFFE
0380
0380
0380
0380
0380
0000
0000
0000
FFFE
FFFE
FFFE
ENDCHAR
STARTCHAR twosuperior.uni00B2
ENCODING 178
SWIDTH 575 0
DWIDTH 17 0
BBX 9 12 4 10
BITMAP
7E00
FF00
8780
0380
0380
0700
0E00
1C00
3800
6000
FF80
FF80
ENDCHAR
STARTCHAR threesuperior.uni00B3
ENCODING 179
SWIDTH 575 0
DWIDTH 17 0
BBX 9 12 4 10
BITMAP
7E00
FF80
8380
0380
1F00
1F00
0780
0380
0380
8780
FF00
7E00
ENDCHAR
STARTCHAR acute.uni00B4
ENCODING 180
SWIDTH 575 0
DWIDTH 17 0
BBX 8 6 6 18
BITMAP
0F00
1E00
3C00
3800
7000
E000
ENDCHAR
STARTCHAR micro.uni00B5
ENCODING 181
SWIDTH 575 0
DWIDTH 17 0
BBX 14 22 2 -6
BITMAP
F0F0
F0F0
F0F0
F0F0
F0F0
F0F0
F0F0
F0F0
F0F0
F0F0
F0F0
F0F0
F9F0
FFFC
FFFC
F73C
F000
F000
F000
F000
F000
F000
ENDCHAR
STARTCHAR paragraph.uni00B6
ENCODING 182
SWIDTH 575 0
DWIDTH 17 0
BBX 14 25 1 -3
BITMAP
1FFC
3FFC
7F1C
FF1C
FF1C
FF1C
FF1C
FF1C
FF1C
7F1C
7F1C
3F1C
071C
071C
071C
071C
071C
071C
071C
071C
071C
071C
071C
071C
071C
ENDCHAR
STARTCHAR periodcentered.uni00B7
ENCODING 183
SWIDTH 575 0
DWIDTH 17 0
BBX 5 5 6 8
BITMAP
F800
F800
F800
F800
F800
ENDCHAR
STARTCHAR cedilla.uni00B8
ENCODING 184
SWIDTH 575 0
DWIDTH 17 0
BBX 6 6 5 -6
BITMAP
1000
1800
0C00
8C00
FC00
F800
ENDCHAR
STARTCHAR onesuperior.uni00B9
ENCODING 185
SWIDTH 575 0
DWIDTH 17 0
BBX 9 12 4 10
BITMAP
3C00
FC00
DC00
1C00
1C00
1C00
1C00
1C00
1C00
1C00
FF80
FF80
ENDCHAR
STARTCHAR ordmasculine.uni00BA
ENCODING 186
SWIDTH 575 0
DWIDTH 17 0
BBX 10 15 4 7
BITMAP
1E00
7F80
7380
E1C0
E1C0
E1C0
E1C0
E1C0
E1C0
7380
7F80
1E00
0000
FFC0
FFC0
ENDCHAR
STARTCHAR guillemotright.uni00BB
ENCODING 187
SWIDTH 575 0
DWIDTH 17 0
BBX 12 13 3 3
BITMAP
8200
C300
E380
F3C0
79E0
3CF0
0C30
3CF0
79E0
F3C0
E380
C300
8200
ENDCHAR
STARTCHAR onequarter.uni00BC
ENCODING 188
SWIDTH 575 0
DWIDTH 17 0
BBX 16 28 0 -4
BITMAP
3C00
FC00
DC00
1C00
1C00
1C00
1C00
1C00
1C00
1C00
FF80
FF83
003F
03FC
1FE0
7E00
600E
001E
003E
007E
00EE
01CE
038E
03FF
03FF
000E
000E
000E
ENDCHAR
STARTCHAR onehalf.uni00BD
ENCODING 189
SWIDTH 575 0
DWIDTH 17 0
BBX 16 28 0 -4
BITMAP
3C00
FC00
DC00
1C00
1C00
1C00
1C00
1C00
1C00
1C00
FF80
FF83
003F
03FC
1FE0
7E00
60FC
01FE
010F
0007
0007
000E
001C
0038
0070
00C0
01FF
01FF
ENDCHAR
STARTCHAR threequarters.uni00BE
ENCODING 190
SWIDTH 575 0
DWIDTH 17 0
BBX 15 28 1 -4
BITMAP
7E00
FF80
8380
0380
1F00
1F00
0780
0380
0380
8780
FF00
7E06
007E
07F8
3FC0
FC00
C01C
003C
007C
00FC
01DC
039C
071C
07FE
07FE
001C
001C
001C
ENDCHAR
STARTCHAR questiondown.uni00BF
ENCODING 191
SWIDTH 575 0
DWIDTH 17 0
BBX 11 22 3 0
BITMAP
0F00
0F00
0F00
0F00
0000
0000
0F00
0F00
0F00
0F00
0F00
0F00
1E00
3C00
7800
F000
F000
F020
F860
7FE0
7FC0
1F00
ENDCHAR
STARTCHAR Agrave.uni00C0
ENCODING 192
SWIDTH 575 0
DWIDTH 17 0
BBX 16 27 0 0
BITMAP
0700
0380
01C0
00E0
0000
07E0
07E0
07E0
07E0
0FF0
0FF0
0E70
0E70
1E78
1E78
1E78
1C38
3C3C
3FFC
3FFC
3FFC
781E
781E
781E
781E
F00F
F00F
ENDCHAR
STARTCHAR Aacute.uni00C1
ENCODING 193
SWIDTH 575 0
DWIDTH 17 0
BBX 16 27 0 0
BITMAP
0070
00E0
01C0
0380
0000
07E0
07E0
07E0
07E0
0FF0
0FF0
0E70
0E70
1E78
1E78
1E78
1C38
3C3C
3FFC
3FFC
3FFC
781E
781E
781E
781E
F00F
F00F
ENDCHAR
STARTCHAR Acircumflex.uni00C2
ENCODING 194
SWIDTH 575 0
DWIDTH 17 0
BBX 16 27 0 0
BITMAP
03C0
07E0
0E70
1C38
0000
07E0
07E0
07E0
07E0
0FF0
0FF0
0E70
0E70
1E78
1E78
1E78
1C38
3C3C
3FFC
3FFC
3FFC
781E
781E
781E
781E
F00F
F00F
ENDCHAR
STARTCHAR Atilde.uni00C3
ENCODING 195
SWIDTH 575 0
DWIDTH 17 0
BBX 16 27 0 0
BITMAP
070C
0FCC
0CFC
0C38
0000
07E0
07E0
07E0
07E0
0FF0
0FF0
0E70
0E70
1E78
1E78
1E78
1C38
3C3C
3FFC
3FFC
3FFC
781E
781E
781E
781E
F00F
F00F
ENDCHAR
STARTCHAR Adieresis.uni00C4
ENCODING 196
SWIDTH 575 0
DWIDTH 17 0
BBX 16 28 0 0
BITMAP
0E70
0E70
0E70
0E70
0000
0000
07E0
07E0
07E0
07E0
0FF0
0FF0
0E70
0E70
1E78
1E78
1E78
1C38
3C3C
3FFC
3FFC
3FFC
781E
781E
781E
781E
F00F
F00F
ENDCHAR
STARTCHAR Aring.uni00C5
ENCODING 197
SWIDTH 575 0
DWIDTH 17 0
BBX 16 28 1 0
BITMAP
03C0
07E0
0E70
0C30
0C30
0E70
07E0
07E0
07E0
0FF0
0FF0
0FF0
0E70
0E70
1E78
1E78
1E78
1C38
3C3C
3FFC
3FFC
3FFC
781E
781E
781E
781E
F00F
F00F
ENDCHAR
STARTCHAR AE.uni00C6
ENCODING 198
SWIDTH 575 0
DWIDTH 17 0
BBX 16 22 0 0
BITMAP
07FF
0FFF
0FFF
0EE0
0EE0
1EE0
1EE0
1CE0
1CFE
1CFE
3CFE
3CE0
38E0
3FE0
3FE0
7FE0
78E0
70E0
70E0
70FF
F0FF
F0FF
ENDCHAR
STARTCHAR Ccedilla.uni00C7
ENCODING 199
SWIDTH 575 0
DWIDTH 17 0
BBX 13 28 2 -6
BITMAP
03F0
0FF8
3FF8
3E38
7C08
7800
F800
F000
F000
F000
F000
F000
F000
F000
F000
7800
7800
7C08
3E38
3FF8
0FF8
07F0
0080
00C0
0060
0460
07E0
07C0
ENDCHAR
STARTCHAR Egrave.uni00C8
ENCODING 200
SWIDTH 575 0
DWIDTH 17 0
BBX 13 27 2 0
BITMAP
1C00
0E00
0700
0380
0000
FFF8
FFF8
FFF8
F000
F000
F000
F000
F000
FFF0
FFF0
FFF0
F000
F000
F000
F000
F000
F000
F000
F000
FFF8
FFF8
FFF8
ENDCHAR
STARTCHAR Eacute.uni00C9
ENCODING 201
SWIDTH 575 0
DWIDTH 17 0
BBX 13 27 2 0
BITMAP
01C0
0380
0700
0E00
0000
FFF8
FFF8
FFF8
F000
F000
F000
F000
F000
FFF0
FFF0
FFF0
F000
F000
F000
F000
F000
F000
F000
F000
FFF8
FFF8
FFF8
ENDCHAR
STARTCHAR Ecircumflex.uni00CA
ENCODING 202
SWIDTH 575 0
DWIDTH 17 0
BBX 13 27 2 0
BITMAP
0F00
1F80
39C0
70E0
0000
FFF8
FFF8
FFF8
F000
F000
F000
F000
F000
FFF0
FFF0
FFF0
F000
F000
F000
F000
F000
F000
F000
F000
FFF8
FFF8
FFF8
ENDCHAR
STARTCHAR Edieresis.uni00CB
ENCODING 203
SWIDTH 575 0
DWIDTH 17 0
BBX 13 28 2 0
BITMAP
39C0
39C0
39C0
39C0
0000
0000
FFF8
FFF8
FFF8
F000
F000
F000
F000
F000
FFF0
FFF0
FFF0
F000
F000
F000
F000
F000
F000
F000
F000
FFF8
FFF8
FFF8
ENDCHAR
STARTCHAR Igrave.uni00CC
ENCODING 204
SWIDTH 575 0
DWIDTH 17 0
BBX 12 27 2 0
BITMAP
1C00
0E00
0700
0380
0000
FFF0
FFF0
FFF0
0F00
0F00
0F00
0F00
0F00
0F00
0F00
0F00
0F00
0F00
0F00
0F00
0F00
0F00
0F00
0F00
FFF0
FFF0
FFF0
ENDCHAR
STARTCHAR Iacute.uni00CD
ENCODING 205
SWIDTH 575 0
DWIDTH 17 0
BBX 12 27 2 0
BITMAP
01C0
0380
0700
0E00
0000
FFF0
FFF0
FFF0
0F00
0F00
0F00
0F00
0F00
0F00
0F00
0F00
0F00
0F00
0F00
0F00
0F00
0F00
0F00
0F00
FFF0
FFF0
FFF0
ENDCHAR
STARTCHAR Icircumflex.uni00CE
ENCODING 206
SWIDTH 575 0
DWIDTH 17 0
BBX 12 27 2 0
BITMAP
0F00
1F80
39C0
70E0
0000
FFF0
FFF0
FFF0
0F00
0F00
0F00
0F00
0F00
0F00
0F00
0F00
0F00
0F00
0F00
0F00
0F00
0F00
0F00
0F00
FFF0
FFF0
FFF0
ENDCHAR
STARTCHAR Idieresis.uni00CF
ENCODING 207
SWIDTH 575 0
DWIDTH 17 0
BBX 12 28 2 0
BITMAP
39C0
39C0
39C0
39C0
0000
0000
FFF0
FFF0
FFF0
0F00
0F00
0F00
0F00
0F00
0F00
0F00
0F00
0F00
0F00
0F00
0F00
0F00
0F00
0F00
0F00
FFF0
FFF0
FFF0
ENDCHAR
STARTCHAR Eth.uni00D0
ENCODING 208
SWIDTH 575 0
DWIDTH 17 0
BBX 16 22 0 0
BITMAP
3FC0
3FF0
3FFC
3C7C
3C1E
3C1E
3C0F
3C0F
3C0F
FF8F
FF8F
FF8F
3C0F
3C0F
3C0F
3C0F
3C1E
3C1E
3C7C
3FFC
3FF8
3FC0
ENDCHAR
STARTCHAR Ntilde.uni00D1
ENCODING 209
SWIDTH 575 0
DWIDTH 17 0
BBX 14 27 2 0
BITMAP
1C30
3F30
33F0
30E0
0000
F83C
F83C
FC3C
FC3C
FC3C
FE3C
FE3C
FE3C
F73C
F73C
F73C
F3BC
F3BC
F3BC
F1FC
F1FC
F1FC
F0FC
F0FC
F0FC
F07C
F07C
ENDCHAR
STARTCHAR Ograve.uni00D2
ENCODING 210
SWIDTH 575 0
DWIDTH 17 0
BBX 14 27 1 0
BITMAP
0E00
0700
0380
01C0
0000
0FC0
1FE0
3FF0
7CF8
7878
7878
F03C
F03C
F03C
F03C
F03C
F03C
F03C
F03C
F03C
F03C
7878
7878
7CF8
3FF0
1FE0
0FC0
ENDCHAR
STARTCHAR Oacute.uni00D3
ENCODING 211
SWIDTH 575 0
DWIDTH 17 0
BBX 14 27 1 0
BITMAP
00E0
01C0
0380
0700
0000
0FC0
1FE0
3FF0
7CF8
7878
7878
F03C
F03C
F03C
F03C
F03C
F03C
F03C
F03C
F03C
F03C
7878
7878
7CF8
3FF0
1FE0
0FC0
ENDCHAR
STARTCHAR Ocircumflex.uni00D4
ENCODING 212
SWIDTH 575 0
DWIDTH 17 0
BBX 14 27 1 0
BITMAP
0780
0FC0
1CE0
3870
0000
0FC0
1FE0
3FF0
7CF8
7878
7878
F03C
F03C
F03C
F03C
F03C
F03C
F03C
F03C
F03C
F03C
7878
7878
7CF8
3FF0
1FE0
0FC0
ENDCHAR
STARTCHAR Otilde.uni00D5
ENCODING 213
SWIDTH 575 0
DWIDTH 17 0
BBX 14 27 1 0
BITMAP
0E18
1F98
19F8
1870
0000
0FC0
1FE0
3FF0
7CF8
7878
7878
F03C
F03C
F03C
F03C
F03C
F03C
F03C
F03C
F03C
F03C
7878
7878
7CF8
3FF0
1FE0
0FC0
ENDCHAR
STARTCHAR Odieresis.uni00D6
ENCODING 214
SWIDTH 575 0
DWIDTH 17 0
BBX 14 28 1 0
BITMAP
1CE0
1CE0
1CE0
1CE0
0000
0000
0FC0
1FE0
3FF0
7CF8
7878
7878
F03C
F03C
F03C
F03C
F03C
F03C
F03C
F03C
F03C
F03C
7878
7878
7CF8
3FF0
1FE0
0FC0
ENDCHAR
STARTCHAR multiply.uni00D7
ENCODING 215
SWIDTH 575 0
DWIDTH 17 0
BBX 14 15 1 2
BITMAP
2010
7038
F87C
7CF8
3FF0
1FE0
0FC0
0780
0FC0
1FE0
3FF0
7CF8
F87C
7038
2010
ENDCHAR
STARTCHAR Oslash.uni00D8
ENCODING 216
SWIDTH 575 0
DWIDTH 17 0
BBX 16 22 0 1
BITMAP
07E7
0FFF
1FFE
3E7C
3C3C
3C3E
787E
78FE
78FE
79DE
7BDE
7B9E
7F9E
7F1E
7E1E
7E1E
7C3C
3C3C
3E7C
7FF8
FFF0
E7E0
ENDCHAR
STARTCHAR Ugrave.uni00D9
ENCODING 217
SWIDTH 575 0
DWIDTH 17 0
BBX 14 27 2 0
BITMAP
1C00
0E00
0700
0380
0000
F03C
F03C
F03C
F03C
F03C
F03C
F03C
F03C
F03C
F03C
F03C
F03C
F03C
F03C
F03C
F03C
F03C
F03C
7878
7FF8
3FF0
0FC0
ENDCHAR
STARTCHAR Uacute.uni00DA
ENCODING 218
SWIDTH 575 0
DWIDTH 17 0
BBX 14 27 2 0
BITMAP
01C0
0380
0700
0E00
0000
F03C
F03C
F03C
F03C
F03C
F03C
F03C
F03C
F03C
F03C
F03C
F03C
F03C
F03C
F03C
F03C
F03C
F03C
7878
7FF8
3FF0
0FC0
ENDCHAR
STARTCHAR Ucircumflex.uni00DB
ENCODING 219
SWIDTH 575 0
DWIDTH 17 0
BBX 14 27 2 0
BITMAP
0F00
1F80
39C0
70E0
0000
F03C
F03C
F03C
F03C
F03C
F03C
F03C
F03C
F03C
F03C
F03C
F03C
F03C
F03C
F03C
F03C
F03C
F03C
7878
7FF8
3FF0
0FC0
ENDCHAR
STARTCHAR Udieresis.uni00DC
ENCODING 220
SWIDTH 575 0
DWIDTH 17 0
BBX 14 28 2 0
BITMAP
39C0
39C0
39C0
39C0
0000
0000
F03C
F03C
F03C
F03C
F03C
F03C
F03C
F03C
F03C
F03C
F03C
F03C
F03C
F03C
F03C
F03C
F03C
F03C
7878
7FF8
3FF0
0FC0
ENDCHAR
STARTCHAR Yacute.uni00DD
ENCODING 221
SWIDTH 575 0
DWIDTH 17 0
BBX 16 27 0 0
BITMAP
0070
00E0
01C0
0380
0000
F81F
781E
781E
3C3C
3C3C
3E7C
1E78
1E78
0FF0
0FF0
07E0
07E0
03C0
03C0
03C0
03C0
03C0
03C0
03C0
03C0
03C0
03C0
ENDCHAR
STARTCHAR Thorn.uni00DE
ENCODING 222
SWIDTH 575 0
DWIDTH 17 0
BBX 13 22 2 0
BITMAP
F000
F000
F000
FF80
FFE0
FFF0
F0F0
F078
F078
F078
F078
F078
F078
F0F0
FFF0
FFE0
FF80
F000
F000
F000
F000
F000
ENDCHAR
STARTCHAR germandbls.uni00DF
ENCODING 223
SWIDTH 575 0
DWIDTH 17 0
BBX 14 23 2 0
BITMAP
1F80
3FC0
7FE0
F8F0
F070
F0F0
F1F0
F3C0
F780
F780
F780
F7C0
F3E0
F3F0
F1F8
F078
F07C
F03C
F03C
F47C
F7F8
F7F8
F3E0
ENDCHAR
STARTCHAR agrave.uni00E0
ENCODING 224
SWIDTH 575 0
DWIDTH 17 0
BBX 14 24 1 0
BITMAP
3C00
1E00
0F00
0700
0380
01C0
0000
0000
1FE0
3FF8
3FF8
307C
003C
1FFC
3FFC
7FFC
F83C
F03C
F03C
F07C
F8FC
7FFC
7FBC
1F3C
ENDCHAR
STARTCHAR aacute.uni00E1
ENCODING 225
SWIDTH 575 0
DWIDTH 17 0
BBX 14 24 1 0
BITMAP
0078
00F0
01E0
01C0
0380
0700
0000
0000
1FE0
3FF8
3FF8
307C
003C
1FFC
3FFC
7FFC
F83C
F03C
F03C
F07C
F8FC
7FFC
7FBC
1F3C
ENDCHAR
STARTCHAR acircumflex.uni00E2
ENCODING 226
SWIDTH 575 0
DWIDTH 17 0
BBX 14 24 1 0
BITMAP
0780
0780
0FC0
1CE0
1860
3870
0000
0000
1FE0
3FF8
3FF8
307C
003C
1FFC
3FFC
7FFC
F83C
F03C
F03C
F07C
F8FC
7FFC
7FBC
1F3C
ENDCHAR
STARTCHAR atilde.uni00E3
ENCODING 227
SWIDTH 575 0
DWIDTH 17 0
BBX 14 23 1 0
BITMAP
0E18
1F98
19F8
1870
0000
0000
0000
1FE0
3FF8
3FF8
307C
003C
1FFC
3FFC
7FFC
F83C
F03C
F03C
F07C
F8FC
7FFC
7FBC
1F3C
ENDCHAR
STARTCHAR adieresis.uni00E4
ENCODING 228
SWIDTH 575 0
DWIDTH 17 0
BBX 14 23 1 0
BITMAP
1CE0
1CE0
1CE0
1CE0
0000
0000
0000
1FE0
3FF8
3FF8
307C
003C
1FFC
3FFC
7FFC
F83C
F03C
F03C
F07C
F8FC
7FFC
7FBC
1F3C
ENDCHAR
STARTCHAR aring.uni00E5
ENCODING 229
SWIDTH 575 0
DWIDTH 17 0
BBX 14 26 1 0
BITMAP
03C0
07E0
0E70
0C30
0C30
0E70
07E0
03C0
0000
0000
1FE0
3FF8
3FF8
307C
003C
1FFC
3FFC
7FFC
F83C
F03C
F03C
F07C
F8FC
7FFC
7FBC
1F3C
ENDCHAR
STARTCHAR ae.uni00E6
ENCODING 230
SWIDTH 575 0
DWIDTH 17 0
BBX 17 16 0 0
BITMAP
3E3E0000
7F7F0000
7FFF0000
43E78000
01C38000
01C38000
1FC38000
7FFF8000
7FFF8000
F1FF8000
E1C00000
E1C00000
F1E08000
FFFF8000
7F7F8000
3E3F0000
ENDCHAR
STARTCHAR ccedilla.uni00E7
ENCODING 231
SWIDTH 575 0
DWIDTH 17 0
BBX 12 22 2 -6
BITMAP
0FE0
1FF0
3FF0
7C10
7800
F000
F000
F000
F000
F000
F000
7800
7C10
3FF0
1FF0
0FE0
0100
0180
00C0
08C0
0FC0
0F80
ENDCHAR
STARTCHAR egrave.uni00E8
ENCODING 232
SWIDTH 575 0
DWIDTH 17 0
BBX 14 24 1 0
BITMAP
1E00
0F00
0780
0380
01C0
00E0
0000
0000
0FC0
1FE0
3FF0
7C78
7878
F03C
F03C
FFFC
FFFC
FFFC
F000
F000
7818
7FF8
3FF8
0FE0
ENDCHAR
STARTCHAR eacute.uni00E9
ENCODING 233
SWIDTH 575 0
DWIDTH 17 0
BBX 14 24 1 0
BITMAP
003C
0078
00F0
00E0
01C0
0380
0000
0000
0FC0
1FE0
3FF0
7C78
7878
F03C
F03C
FFFC
FFFC
FFFC
F000
F000
7818
7FF8
3FF8
0FE0
ENDCHAR
STARTCHAR ecircumflex.uni00EA
ENCODING 234
SWIDTH 575 0
DWIDTH 17 0
BBX 14 24 1 0
BITMAP
03C0
03C0
07E0
0E70
0C30
1C38
0000
0000
0FC0
1FE0
3FF0
7C78
7878
F03C
F03C
FFFC
FFFC
FFFC
F000
F000
7818
7FF8
3FF8
0FE0
ENDCHAR
STARTCHAR edieresis.uni00EB
ENCODING 235
SWIDTH 575 0
DWIDTH 17 0
BBX 14 23 1 0
BITMAP
0E70
0E70
0E70
0E70
0000
0000
0000
0FC0
1FE0
3FF0
7C78
7878
F03C
F03C
FFFC
FFFC
FFFC
F000
F000
7818
7FF8
3FF8
0FE0
ENDCHAR
STARTCHAR igrave.uni00EC
ENCODING 236
SWIDTH 575 0
DWIDTH 17 0
BBX 14 24 2 0
BITMAP
7800
3C00
1E00
0E00
0700
0380
0000
0000
7F80
7F80
7F80
0780
0780
0780
0780
0780
0780
0780
0780
0780
0780
FFFC
FFFC
FFFC
ENDCHAR
STARTCHAR iacute.uni00ED
ENCODING 237
SWIDTH 575 0
DWIDTH 17 0
BBX 14 24 2 0
BITMAP
00F0
01E0
03C0
0380
0700
0E00
0000
0000
7F80
7F80
7F80
0780
0780
0780
0780
0780
0780
0780
0780
0780
0780
FFFC
FFFC
FFFC
ENDCHAR
STARTCHAR icircumflex.uni00EE
ENCODING 238
SWIDTH 575 0
DWIDTH 17 0
BBX 14 24 2 0
BITMAP
0F00
0F00
1F80
39C0
30C0
70E0
0000
0000
7F80
7F80
7F80
0780
0780
0780
0780
0780
0780
0780
0780
0780
0780
FFFC
FFFC
FFFC
ENDCHAR
STARTCHAR idieresis.uni00EF
ENCODING 239
SWIDTH 575 0
DWIDTH 17 0
BBX 14 23 2 0
BITMAP
39C0
39C0
39C0
39C0
0000
0000
0000
7F80
7F80
7F80
0780
0780
0780
0780
0780
0780
0780
0780
0780
0780
FFFC
FFFC
FFFC
ENDCHAR
STARTCHAR eth.uni00F0
ENCODING 240
SWIDTH 575 0
DWIDTH 17 0
BBX 14 23 1 0
BITMAP
1E10
0F78
0FE0
0F80
1FC0
7BC0
21E0
00F0
0FF0
3FF8
7FF8
787C
F83C
F03C
F03C
F03C
F03C
F03C
F878
7CF8
3FF0
1FE0
0FC0
ENDCHAR
STARTCHAR ntilde.uni00F1
ENCODING 241
SWIDTH 575 0
DWIDTH 17 0
BBX 12 23 2 0
BITMAP
1C30
3F30
33F0
30E0
0000
0000
0000
F3C0
FFE0
FFE0
F9F0
F0F0
F0F0
F0F0
F0F0
F0F0
F0F0
F0F0
F0F0
F0F0
F0F0
F0F0
F0F0
ENDCHAR
STARTCHAR ograve.uni00F2
ENCODING 242
SWIDTH 575 0
DWIDTH 17 0
BBX 14 23 1 0
BITMAP
1E00
0F00
0780
01C0
0000
0000
0000
0FC0
1FE0
3FF0
7CF8
7878
F03C
F03C
F03C
F03C
F03C
F03C
7878
7CF8
3FF0
1FE0
0FC0
ENDCHAR
STARTCHAR oacute.uni00F3
ENCODING 243
SWIDTH 575 0
DWIDTH 17 0
BBX 14 23 1 0
BITMAP
00F0
01E0
03C0
0700
0000
0000
0000
0FC0
1FE0
3FF0
7CF8
7878
F03C
F03C
F03C
F03C
F03C
F03C
7878
7CF8
3FF0
1FE0
0FC0
ENDCHAR
STARTCHAR ocircumflex.uni00F4
ENCODING 244
SWIDTH 575 0
DWIDTH 17 0
BBX 14 23 1 0
BITMAP
0780
0FC0
1CE0
3870
0000
0000
0000
0FC0
1FE0
3FF0
7CF8
7878
F03C
F03C
F03C
F03C
F03C
F03C
7878
7CF8
3FF0
1FE0
0FC0
ENDCHAR
STARTCHAR otilde.uni00F5
ENCODING 245
SWIDTH 575 0
DWIDTH 17 0
BBX 14 23 1 0
BITMAP
0E38
1F78
13F0
10E0
0000
0000
0000
0FC0
1FE0
3FF0
7CF8
7878
F03C
F03C
F03C
F03C
F03C
F03C
7878
7CF8
3FF0
1FE0
0FC0
ENDCHAR
STARTCHAR odieresis.uni00F6
ENCODING 246
SWIDTH 575 0
DWIDTH 17 0
BBX 14 23 1 0
BITMAP
1CE0
1CE0
1CE0
1CE0
0000
0000
0000
0FC0
1FE0
3FF0
7CF8
7878
F03C
F03C
F03C
F03C
F03C
F03C
7878
7CF8
3FF0
1FE0
0FC0
ENDCHAR
STARTCHAR divide.uni00F7
ENCODING 247
SWIDTH 575 0
DWIDTH 17 0
BBX 14 17 1 1
BITMAP
0780
0780
0780
0780
0780
0000
0000
FFFC
FFFC
FFFC
0000
0000
0780
0780
0780
0780
0780
ENDCHAR
STARTCHAR oslash.uni00F8
ENCODING 248
SWIDTH 575 0
DWIDTH 17 0
BBX 15 18 1 -1
BITMAP
000C
0FDE
1FFC
3FF8
7CF8
78F8
F1FC
F3FC
F3BC
F73C
FE3C
FE3C
FC78
7CF8
7FF0
FFE0
CFC0
C000
ENDCHAR
STARTCHAR ugrave.uni00F9
ENCODING 249
SWIDTH 575 0
DWIDTH 17 0
BBX 12 24 2 0
BITMAP
7800
3C00
1E00
0E00
0700
0380
0000
0000
F0F0
F0F0
F0F0
F0F0
F0F0
F0F0
F0F0
F0F0
F0F0
F0F0
F0F0
F0F0
F9F0
FFF0
7FF0
3CF0
ENDCHAR
STARTCHAR uacute.uni00FA
ENCODING 250
SWIDTH 575 0
DWIDTH 17 0
BBX 12 24 2 0
BITMAP
00F0
01E0
03C0
0380
0700
0E00
0000
0000
F0F0
F0F0
F0F0
F0F0
F0F0
F0F0
F0F0
F0F0
F0F0
F0F0
F0F0
F0F0
F9F0
FFF0
7FF0
3CF0
ENDCHAR
STARTCHAR ucircumflex.uni00FB
ENCODING 251
SWIDTH 575 0
DWIDTH 17 0
BBX 12 24 2 0
BITMAP
0F00
0F00
1F80
39C0
30C0
70E0
0000
0000
F0F0
F0F0
F0F0
F0F0
F0F0
F0F0
F0F0
F0F0
F0F0
F0F0
F0F0
F0F0
F9F0
FFF0
7FF0
3CF0
ENDCHAR
STARTCHAR udieresis.uni00FC
ENCODING 252
SWIDTH 575 0
DWIDTH 17 0
BBX 12 23 2 0
BITMAP
39C0
39C0
39C0
39C0
0000
0000
0000
F0F0
F0F0
F0F0
F0F0
F0F0
F0F0
F0F0
F0F0
F0F0
F0F0
F0F0
F0F0
F9F0
FFF0
7FF0
3CF0
ENDCHAR
STARTCHAR yacute.uni00FD
ENCODING 253
SWIDTH 575 0
DWIDTH 17 0
BBX 15 30 1 -6
BITMAP
0078
00F0
01E0
01C0
0380
0700
0000
0000
F01E
783C
783C
783C
3C78
3C78
3C78
1EF0
1EF0
0EF0
0FE0
0FE0
07E0
07C0
07C0
03C0
0780
0780
0F80
7F00
7E00
7C00
ENDCHAR
STARTCHAR thorn.uni00FE
ENCODING 254
SWIDTH 575 0
DWIDTH 17 0
BBX 14 29 2 -6
BITMAP
F000
F000
F000
F000
F000
F000
F000
F3E0
F7F0
FFF8
FCF8
F87C
F03C
F03C
F03C
F03C
F03C
F03C
F87C
FCF8
FFF8
F7F0
F3E0
F000
F000
F000
F000
F000
F000
ENDCHAR
STARTCHAR ydieresis.uni00FF
ENCODING 255
SWIDTH 575 0
DWIDTH 17 0
BBX 15 29 1 -6
BITMAP
1CE0
1CE0
1CE0
1CE0
0000
0000
0000
F01E
783C
783C
783C
3C78
3C78
3C78
1EF0
1EF0
0EF0
0FE0
0FE0
07E0
07C0
07C0
03C0
0780
0780
0F80
7F00
7E00
7C00
ENDCHAR
STARTCHAR Cacute.uni0106
ENCODING 262
SWIDTH 575 0
DWIDTH 17 0
BBX 13 27 2 0
BITMAP
0070
00E0
01C0
0380
0000
03F0
0FF8
3FF8
3E38
7C08
7800
F800
F000
F000
F000
F000
F000
F000
F000
F000
7800
7800
7C08
3E38
3FF8
0FF8
03F0
ENDCHAR
STARTCHAR cacute.uni0107
ENCODING 263
SWIDTH 575 0
DWIDTH 17 0
BBX 13 24 2 0
BITMAP
0078
00F0
01E0
01C0
0380
0700
0000
0000
0FE0
1FF0
3FF0
7C10
7800
F000
F000
F000
F000
F000
F000
7800
7C10
3FF0
1FF0
0FE0
ENDCHAR
STARTCHAR Ccaron.uni010C
ENCODING 268
SWIDTH 575 0
DWIDTH 17 0
BBX 13 27 2 0
BITMAP
1C38
0E70
07E0
03C0
0000
03F0
0FF8
3FF8
3E38
7C08
7800
F800
F000
F000
F000
F000
F000
F000
F000
F000
7800
7800
7C08
3E38
3FF8
0FF8
03F0
ENDCHAR
STARTCHAR ccaron.uni010D
ENCODING 269
SWIDTH 575 0
DWIDTH 17 0
BBX 12 24 2 0
BITMAP
3870
1860
1CE0
0FC0
0780
0780
0000
0000
0FE0
1FF0
3FF0
7C10
7800
F000
F000
F000
F000
F000
F000
7800
7C10
3FF0
1FF0
0FE0
ENDCHAR
STARTCHAR dcroat.uni0111
ENCODING 273
SWIDTH 575 0
DWIDTH 17 0
BBX 16 23 1 0
BITMAP
003C
003C
03FF
03FF
03FF
003C
003C
1F3C
3FBC
7FFC
7CFC
F87C
F03C
F03C
F03C
F03C
F03C
F03C
F87C
7CFC
7FFC
3FBC
1F3C
ENDCHAR
STARTCHAR Gbreve.uni011E
ENCODING 286
SWIDTH 575 0
DWIDTH 17 0
BBX 14 27 2 0
BITMAP
3060
38E0
1FC0
0F80
0000
07F0
1FF8
3FF8
3E18
7808
7800
F800
F000
F000
F000
F000
F0FC
F0FC
F0FC
F01C
781C
781C
7C1C
3E1C
3FFC
0FFC
07F0
ENDCHAR
STARTCHAR gbreve.uni011F
ENCODING 287
SWIDTH 575 0
DWIDTH 17 0
BBX 14 30 1 -6
BITMAP
1830
1C70
0FE0
07C0
0000
0000
0000
0000
0F3C
3FFC
7FFC
7CFC
F87C
F03C
F03C
F03C
F03C
F03C
F03C
F87C
7CFC
7FFC
3FFC
0F3C
003C
003C
2078
3FF8
3FF0
1FC0
ENDCHAR
STARTCHAR Idotaccent.uni0130
ENCODING 304
SWIDTH 575 0
DWIDTH 17 0
BBX 12 28 2 0
BITMAP
0780
0780
0780
0780
0000
0000
FFF0
FFF0
FFF0
0F00
0F00
0F00
0F00
0F00
0F00
0F00
0F00
0F00
0F00
0F00
0F00
0F00
0F00
0F00
0F00
FFF0
FFF0
FFF0
ENDCHAR
STARTCHAR dotlessi.uni0131
ENCODING 305
SWIDTH 575 0
DWIDTH 17 0
BBX 14 16 2 0
BITMAP
7F80
7F80
7F80
0780
0780
0780
0780
0780
0780
0780
0780
0780
0780
FFFC
FFFC
FFFC
ENDCHAR
STARTCHAR Lslash.uni0141
ENCODING 321
SWIDTH 575 0
DWIDTH 17 0
BBX 16 22 0 0
BITMAP
1E00
1E00
1E00
1E00
1E00
1E20
1E70
1EF0
1FE0
1FC0
1F00
1E00
7E00
FE00
FE00
DE00
1E00
1E00
1E00
1FFF
1FFF
1FFF
ENDCHAR
STARTCHAR lslash.uni0142
ENCODING 322
SWIDTH 575 0
DWIDTH 17 0
BBX 15 23 1 0
BITMAP
7F80
7F80
7F80
0780
078C
079C
07BC
07F8
07F0
07C0
0780
1F80
3F80
7F80
F780
E780
4780
0780
0780
07C0
03FE
03FE
00FE
ENDCHAR
STARTCHAR OE.uni0152
ENCODING 338
SWIDTH 575 0
DWIDTH 17 0
BBX 16 22 1 0
BITMAP
07FF
1FFF
3FFF
7CE0
78E0
F0E0
F0E0
F0E0
F0FE
F0FE
F0FE
F0E0
F0E0
F0E0
F0E0
F0E0
F0E0
78E0
78E0
3FFF
3FFF
0FFF
ENDCHAR
STARTCHAR oe.uni0153
ENCODING 339
SWIDTH 575 0
DWIDTH 17 0
BBX 16 16 0 0
BITMAP
1E3C
7F7E
7FFE
F3EF
E1C7
E1C7
E1C7
E1FF
E1FF
E1FF
E1C0
E1C0
F3E1
7FFF
7F7F
1E3E
ENDCHAR
STARTCHAR Scedilla.uni015E
ENCODING 350
SWIDTH 575 0
DWIDTH 17 0
BBX 13 28 2 -6
BITMAP
0FC0
3FF0
7FF0
F870
F030
F000
F800
FC00
7F80
7FC0
3FF0
07F0
01F8
00F8
0078
0078
8078
C078
F0F8
FFF0
7FE0
1F80
0200
0300
0180
1180
1F80
1F00
ENDCHAR
STARTCHAR scedilla.uni015F
ENCODING 351
SWIDTH 575 0
DWIDTH 17 0
BBX 12 22 2 -6
BITMAP
1FC0
7FE0
FFE0
F820
F000
F800
FF00
7FC0
3FE0
07F0
00F0
00F0
C1F0
FFF0
FFE0
3F80
0200
0300
0180
1180
1F80
1F00
ENDCHAR
STARTCHAR Scaron.uni0160
ENCODING 352
SWIDTH 575 0
DWIDTH 17 0
BBX 13 27 2 0
BITMAP
70E0
39C0
1F80
0F00
0000
0FC0
3FF0
7FF0
F870
F030
F000
F800
FC00
7F80
7FC0
3FF0
07F0
01F8
00F8
0078
0078
8078
C078
F0F8
FFF0
7FE0
1F80
ENDCHAR
STARTCHAR scaron.uni0161
ENCODING 353
SWIDTH 575 0
DWIDTH 17 0
BBX 12 24 2 0
BITMAP
70E0
30C0
39C0
1F80
0F00
0F00
0000
0000
1FC0
7FE0
FFE0
F820
F000
F800
FF00
7FC0
3FE0
07F0
00F0
00F0
C1F0
FFF0
FFE0
3F80
ENDCHAR
STARTCHAR Ydieresis.uni0178
ENCODING 376
SWIDTH 575 0
DWIDTH 17 0
BBX 16 28 0 0
BITMAP
0E70
0E70
0E70
0E70
0000
0000
F81F
781E
781E
3C3C
3C3C
3E7C
1E78
1E78
0FF0
0FF0
07E0
07E0
03C0
03C0
03C0
03C0
03C0
03C0
03C0
03C0
03C0
03C0
ENDCHAR
STARTCHAR Zcaron.uni017D
ENCODING 381
SWIDTH 575 0
DWIDTH 17 0
BBX 14 27 2 0
BITMAP
70E0
39C0
1F80
0F00
0000
FFFC
FFFC
FFFC
007C
007C
00F8
01F0
01F0
03E0
03C0
07C0
0F80
0F00
1F00
3E00
3C00
7C00
F800
F000
FFFC
FFFC
FFFC
ENDCHAR
STARTCHAR zcaron.uni017E
ENCODING 382
SWIDTH 575 0
DWIDTH 17 0
BBX 13 24 2 0
BITMAP
70E0
30C0
39C0
1F80
0F00
0F00
0000
0000
FFF8
FFF8
FFF8
00F8
01F0
03E0
03C0
0780
0F00
1F00
3E00
7C00
F800
FFF8
FFF8
FFF8
ENDCHAR
STARTCHAR florin.uni0192
ENCODING 402
SWIDTH 575 0
DWIDTH 17 0
BBX 16 28 0 -6
BITMAP
003E
007F
00FF
00F1
00F0
01E0
01E0
01E0
01E0
1FFC
1FFC
1FFC
03C0
03C0
03C0
03C0
03C0
03C0
03C0
03C0
0780
0780
0780
0780
8F80
FF00
FE00
7C00
ENDCHAR
STARTCHAR circumflex.uni02C6
ENCODING 710
SWIDTH 575 0
DWIDTH 17 0
BBX 10 6 3 18
BITMAP
1E00
1E00
3F00
7380
6180
E1C0
ENDCHAR
STARTCHAR caron.uni02C7
ENCODING 711
SWIDTH 575 0
DWIDTH 17 0
BBX 10 6 3 18
BITMAP
E1C0
6180
7380
3F00
1E00
1E00
ENDCHAR
STARTCHAR breve.uni02D8
ENCODING 728
SWIDTH 575 0
DWIDTH 17 0
BBX 9 4 4 20
BITMAP
C180
E380
7F00
3E00
ENDCHAR
STARTCHAR dotaccent.uni02D9
ENCODING 729
SWIDTH 575 0
DWIDTH 17 0
BBX 4 4 7 19
BITMAP
F000
F000
F000
F000
ENDCHAR
STARTCHAR ring.uni02DA
ENCODING 730
SWIDTH 575 0
DWIDTH 17 0
BBX 8 8 5 18
BITMAP
3C00
7E00
E700
C300
C300
E700
7E00
3C00
ENDCHAR
STARTCHAR ogonek.uni02DB
ENCODING 731
SWIDTH 575 0
DWIDTH 17 0
BBX 6 6 6 -6
BITMAP
6000
6000
C000
C000
FC00
7C00
ENDCHAR
STARTCHAR tilde.uni02DC
ENCODING 732
SWIDTH 575 0
DWIDTH 17 0
BBX 10 4 4 19
BITMAP
70C0
FCC0
CFC0
C380
ENDCHAR
STARTCHAR hungarumlaut.uni02DD
ENCODING 733
SWIDTH 575 0
DWIDTH 17 0
BBX 11 6 4 18
BITMAP
1CE0
39C0
3980
7380
6300
E700
ENDCHAR
STARTCHAR Omega.uni03A9
ENCODING 937
SWIDTH 575 0
DWIDTH 17 0
BBX 14 21 1 0
BITMAP
0780
1FE0
3FF0
7FF8
7CF8
7878
F03C
F03C
F03C
F03C
F03C
F03C
F03C
F03C
7878
7878
3870
1CE0
FCFC
FCFC
FCFC
ENDCHAR
STARTCHAR pi.uni03C0
ENCODING 960
SWIDTH 575 0
DWIDTH 17 0
BBX 17 16 0 0
BITMAP
FFFF0000
FFFF0000
FFFF0000
FFFF0000
3C3C0000
3C3C0000
3C3C0000
3C3C0000
3C3C0000
3C3C0000
3C3C0000
3C3C0000
3C3C0000
3C3F8000
3C3F8000
3C1F8000
ENDCHAR
STARTCHAR endash.uni2013
ENCODING 8211
SWIDTH 575 0
DWIDTH 17 0
BBX 11 4 3 6
BITMAP
FFE0
FFE0
FFE0
FFE0
ENDCHAR
STARTCHAR emdash.uni2014
ENCODING 8212
SWIDTH 575 0
DWIDTH 17 0
BBX 15 4 1 6
BITMAP
FFFE
FFFE
FFFE
FFFE
ENDCHAR
STARTCHAR quoteleft.uni2018
ENCODING 8216
SWIDTH 575 0
DWIDTH 17 0
BBX 5 10 6 13
BITMAP
3800
7800
7800
7000
F000
F000
F000
F000
F000
F000
ENDCHAR
STARTCHAR quoteright.uni2019
ENCODING 8217
SWIDTH 575 0
DWIDTH 17 0
BBX 5 10 6 13
BITMAP
7800
7800
7800
7800
7800
7800
7000
F000
F000
E000
ENDCHAR
STARTCHAR quotesinglbase.uni201A
ENCODING 8218
SWIDTH 575 0
DWIDTH 17 0
BBX 5 10 5 -5
BITMAP
7800
7800
7800
7800
7800
7800
7000
F000
F000
E000
ENDCHAR
STARTCHAR quotedblleft.uni201C
ENCODING 8220
SWIDTH 575 0
DWIDTH 17 0
BBX 12 10 2 13
BITMAP
3870
78F0
78F0
70E0
F1E0
F1E0
F1E0
F1E0
F1E0
F1E0
ENDCHAR
STARTCHAR quotedblright.uni201D
ENCODING 8221
SWIDTH 575 0
DWIDTH 17 0
BBX 12 10 3 13
BITMAP
78F0
78F0
78F0
78F0
78F0
78F0
70E0
F1E0
F1E0
E1C0
ENDCHAR
STARTCHAR quotedblbase.uni201E
ENCODING 8222
SWIDTH 575 0
DWIDTH 17 0
BBX 12 10 3 -5
BITMAP
78F0
78F0
78F0
78F0
78F0
78F0
70E0
F1E0
F1E0
E1C0
ENDCHAR
STARTCHAR dagger.uni2020
ENCODING 8224
SWIDTH 575 0
DWIDTH 17 0
BBX 14 25 2 -3
BITMAP
0780
0780
0780
0780
0780
0780
FFFC
FFFC
FFFC
0780
0780
0780
0780
0780
0780
0780
0780
0780
0780
0780
0780
0780
0780
0780
0780
ENDCHAR
STARTCHAR daggerdbl.uni2021
ENCODING 8225
SWIDTH 575 0
DWIDTH 17 0
BBX 14 25 2 -3
BITMAP
0780
0780
0780
0780
0780
0780
FFFC
FFFC
FFFC
0780
0780
0780
0780
0780
0780
0780
FFFC
FFFC
FFFC
0780
0780
0780
0780
0780
0780
ENDCHAR
STARTCHAR bullet.uni2022
ENCODING 8226
SWIDTH 575 0
DWIDTH 17 0
BBX 11 11 3 5
BITMAP
1F00
7FC0
7FC0
FFE0
FFE0
FFE0
FFE0
FFE0
7FC0
7FC0
1F00
ENDCHAR
STARTCHAR ellipsis.uni2026
ENCODING 8230
SWIDTH 575 0
DWIDTH 17 0
BBX 16 5 1 0
BITMAP
F3CF
F3CF
F3CF
F3CF
F3CF
ENDCHAR
STARTCHAR perthousand.uni2030
ENCODING 8240
SWIDTH 575 0
DWIDTH 17 0
BBX 17 22 0 0
BITMAP
3C000000
7E000000
E7000000
C3000000
C3000000
E7030000
7E0E0000
3C380000
00E00000
03800000
0E000000
38000000
60000000
00000000
3C1E0000
7E3F0000
E7738000
C3618000
C3618000
E7738000
7E3F0000
3C1E0000
ENDCHAR
STARTCHAR guilsinglleft.uni2039
ENCODING 8249
SWIDTH 575 0
DWIDTH 17 0
BBX 6 13 5 3
BITMAP
0400
0C00
1C00
3C00
7800
F000
C000
F000
7800
3C00
1C00
0C00
0400
ENDCHAR
STARTCHAR guilsinglright.uni203A
ENCODING 8250
SWIDTH 575 0
DWIDTH 17 0
BBX 6 13 6 3
BITMAP
8000
C000
E000
F000
7800
3C00
0C00
3C00
7800
F000
E000
C000
8000
ENDCHAR
STARTCHAR Euro.uni20AC
ENCODING 8364
SWIDTH 575 0
DWIDTH 17 0
BBX 14 22 1 0
BITMAP
01F8
07FC
0FFC
0F0C
1E04
1E00
3C00
FFE0
FFE0
FFE0
3C00
3C00
FFE0
FFE0
FFE0
3C00
1E00
1E04
1F0C
0FFC
07FC
01F8
ENDCHAR
STARTCHAR trademark.uni2122
ENCODING 8482
SWIDTH 575 0
DWIDTH 17 0
BBX 15 8 0 14
BITMAP
FDCE
FDCE
31FE
31B6
31B6
3186
3186
3186
ENDCHAR
STARTCHAR arrowleft.uni2190
ENCODING 8592
SWIDTH 575 0
DWIDTH 17 0
BBX 16 11 0 2
BITMAP
0600
0E00
1C00
3C00
7FFF
FFFF
7FFF
3C00
1C00
0E00
0600
ENDCHAR
STARTCHAR arrowup.uni2191
ENCODING 8593
SWIDTH 575 0
DWIDTH 17 0
BBX 11 28 3 -6
BITMAP
0400
0E00
1F00
3F80
7FC0
FFE0
CE60
0E00
0E00
0E00
0E00
0E00
0E00
0E00
0E00
0E00
0E00
0E00
0E00
0E00
0E00
0E00
0E00
0E00
0E00
0E00
0E00
0E00
ENDCHAR
STARTCHAR arrowright.uni2192
ENCODING 8594
SWIDTH 575 0
DWIDTH 17 0
BBX 16 11 0 2
BITMAP
0060
0070
0038
003C
FFFE
FFFF
FFFE
003C
0038
0070
0060
ENDCHAR
STARTCHAR arrowdown.uni2193
ENCODING 8595
SWIDTH 575 0
DWIDTH 17 0
BBX 11 28 3 -6
BITMAP
0E00
0E00
0E00
0E00
0E00
0E00
0E00
0E00
0E00
0E00
0E00
0E00
0E00
0E00
0E00
0E00
0E00
0E00
0E00
0E00
0E00
CE60
FFE0
7FC0
3F80
1F00
0E00
0400
ENDCHAR
STARTCHAR partialdiff.uni2202
ENCODING 8706
SWIDTH 575 0
DWIDTH 17 0
BBX 13 20 2 0
BITMAP
0780
1FE0
1F20
1C30
0030
0038
0038
0038
1F38
38B8
7078
7078
E078
E070
E070
E070
E0E0
60C0
3180
1F00
ENDCHAR
STARTCHAR Delta.uni2206
ENCODING 8710
SWIDTH 575 0
DWIDTH 17 0
BBX 17 23 0 0
BITMAP
01C00000
01C00000
01C00000
03E00000
03E00000
03E00000
07F00000
07700000
07700000
0F780000
0F780000
0E380000
1E3C0000
1E3C0000
1C1C0000
3C1E0000
3C1E0000
380E0000
780F0000
780F0000
7FFF0000
FFFF8000
FFFF8000
ENDCHAR
STARTCHAR Pi.uni03A0
ENCODING 928
SWIDTH 575 0
DWIDTH 17 0
BBX 13 22 2 0
BITMAP
FFF8
FFF8
FFF8
F078
F078
F078
F078
F078
F078
F078
F078
F078
F078
F078
F078
F078
F078
F078
F078
F078
F078
F078
ENDCHAR
STARTCHAR summation.uni2211
ENCODING 8721
SWIDTH 575 0
DWIDTH 17 0
BBX 13 28 2 -6
BITMAP
FFF8
FFF8
FFF8
7000
7800
3C00
1C00
1E00
0E00
0F00
0700
0780
0380
01C0
0380
0780
0700
0F00
0E00
1E00
1C00
3C00
3800
7800
7000
FFF8
FFF8
FFF8
ENDCHAR
STARTCHAR minus.uni2212
ENCODING 8722
SWIDTH 575 0
DWIDTH 17 0
BBX 15 3 1 8
BITMAP
FFFE
FFFE
FFFE
ENDCHAR
STARTCHAR slashdiv.uni2215
ENCODING 8725
SWIDTH 575 0
DWIDTH 17 0
BBX 15 25 1 -3
BITMAP
000E
000E
001C
001C
0038
0038
0070
0070
00E0
00E0
01C0
01C0
0380
0380
0700
0700
0E00
0E00
1C00
1C00
3800
3800
7000
7000
E000
ENDCHAR
STARTCHAR bulletop.uni2219
ENCODING 8729
SWIDTH 575 0
DWIDTH 17 0
BBX 5 5 6 8
BITMAP
F800
F800
F800
F800
F800
ENDCHAR
STARTCHAR radical.uni221A
ENCODING 8730
SWIDTH 575 0
DWIDTH 17 0
BBX 15 26 1 -1
BITMAP
000E
000E
001E
001C
001C
001C
0038
0038
0038
0078
0070
F870
F870
F8E0
1CE0
1CE0
1DE0
1DC0
0DC0
0FC0
0F80
0F80
0780
0700
0700
0700
ENDCHAR
STARTCHAR infinity.uni221E
ENCODING 8734
SWIDTH 575 0
DWIDTH 17 0
BBX 17 12 0 3
BITMAP
3C1C0000
7E7F0000
7F7F0000
F3E78000
E3E38000
E1C38000
E1C38000
E3E38000
F3E78000
7F7F0000
7E3F0000
1C1C0000
ENDCHAR
STARTCHAR integral.uni222B
ENCODING 8747
SWIDTH 575 0
DWIDTH 17 0
BBX 16 28 1 -5
BITMAP
003E
007F
00EF
00E6
01E0
01C0
01C0
01C0
03C0
03C0
03C0
03C0
03C0
03C0
03C0
03C0
03C0
03C0
03C0
03C0
0380
0380
0780
0780
6700
F700
FE00
7800
ENDCHAR
STARTCHAR approxequal.uni2248
ENCODING 8776
SWIDTH 575 0
DWIDTH 17 0
BBX 14 11 1 4
BITMAP
3C00
FF0C
FFFC
C3FC
00F0
0000
3C00
FF0C
FFFC
C3FC
00F0
ENDCHAR
STARTCHAR notequal.uni2260
ENCODING 8800
SWIDTH 575 0
DWIDTH 17 0
BBX 14 17 1 1
BITMAP
0018
003C
0078
00F0
FFFC
FFFC
FFFC
03C0
0780
0F00
FFFC
FFFC
FFFC
3C00
7800
F000
6000
ENDCHAR
STARTCHAR lessequal.uni2264
ENCODING 8804
SWIDTH 575 0
DWIDTH 17 0
BBX 14 17 1 0
BITMAP
0004
003C
01FC
0FFC
7FE0
FF00
F000
FE00
7FE0
0FFC
01FC
003C
0004
0000
FFFC
FFFC
FFFC
ENDCHAR
STARTCHAR greaterequal.uni2265
ENCODING 8805
SWIDTH 575 0
DWIDTH 17 0
BBX 14 17 1 0
BITMAP
8000
F000
FE00
FFC0
1FF8
03FC
003C
01FC
1FF8
FFC0
FE00
F000
8000
0000
FFFC
FFFC
FFFC
ENDCHAR
STARTCHAR lozenge.uni25CA
ENCODING 9674
SWIDTH 575 0
DWIDTH 17 0
BBX 14 27 2 -5
BITMAP
0300
0300
0780
0780
0CC0
0CC0
1860
1860
3030
3030
6018
6018
C00C
C00C
C00C
6018
6018
3030
3030
1860
1860
0CC0
0CC0
0780
0780
0300
0300
ENDCHAR
STARTCHAR fi.uniFB01
ENCODING 64257
SWIDTH 575 0
DWIDTH 17 0
BBX 15 23 0 0
BITMAP
03DE
0FDE
0FDE
1F1E
1E00
1E00
1E00
FFFE
FFFE
FFFE
1E1E
1E1E
1E1E
1E1E
1E1E
1E1E
1E1E
1E1E
1E1E
1E1E
1E1E
1E1E
1E1E
ENDCHAR
STARTCHAR fl.uniFB02
ENCODING 64258
SWIDTH 575 0
DWIDTH 17 0
BBX 15 23 0 0
BITMAP
03FE
0FFE
0FFE
1F1E
1E1E
1E1E
1E1E
FFDE
FFDE
FFDE
1E1E
1E1E
1E1E
1E1E
1E1E
1E1E
1E1E
1E1E
1E1E
1E1E
1E1E
1E1E
1E1E
ENDCHAR
STARTCHAR x-hat.uni0302
ENCODING 770
SWIDTH 607 0
DWIDTH 17 0
BBX 15 24 1 0
BITMAP
0100
0380
07C0
0EE0
1C70
3838
0000
0000
F83E
7C7C
3C78
3EF8
1EF0
0FE0
07C0
07C0
07C0
0FE0
0FE0
1EF0
3E78
3C78
783C
F83E
ENDCHAR
STARTCHAR y-hat.uni0177
ENCODING 375
SWIDTH 575 0
DWIDTH 17 0
BBX 15 30 1 -6
BITMAP
0100
0380
07C0
0EE0
1C70
3838
0000
0000
F01E
783C
783C
783C
3C78
3C78
3C78
1EF0
1EF0
0EF0
0FE0
0FE0
07E0
07C0
07C0
03C0
0780
0780
0F80
7F00
7E00
7C00
ENDCHAR
STARTCHAR y-bar.uni0233
ENCODING 563
SWIDTH 607 0
DWIDTH 17 0
BBX 15 30 1 -6
BITMAP
3FF8
3FF8
3FF8
0000
0000
0000
0000
0000
F01E
783C
783C
783C
3C78
3C78
3C78
1EF0
1EF0
0EF0
0FE0
0FE0
07E0
07C0
07C0
03C0
0780
0780
0F80
7F00
7E00
7C00
ENDCHAR
STARTCHAR x-bar.uni0304
ENCODING 772
SWIDTH 607 0
DWIDTH 17 0
BBX 15 24 1 0
BITMAP
3FF8
3FF8
3FF8
0000
0000
0000
0000
0000
F83E
7C7C
3C78
3EF8
1EF0
0FE0
07C0
07C0
07C0
0FE0
0FE0
1EF0
3E78
3C78
783C
F83E
ENDCHAR
STARTCHAR eqminus.uni23BB
ENCODING 9147
SWIDTH 607 0
DWIDTH 17 0
BBX 15 3 1 15
BITMAP
FFFE
FFFE
FFFE
ENDCHAR
STARTCHAR boldparleft.uni27EA
ENCODING 10218
SWIDTH 575 0
DWIDTH 17 0
BBX 9 27 4 -4
BITMAP
0F80
1F00
1F00
3F00
3E00
3E00
7E00
7E00
7C00
FC00
FC00
FC00
FC00
FC00
FC00
FC00
FC00
FC00
7C00
7E00
7E00
7E00
3E00
3F00
1F00
1F00
0F80
ENDCHAR
STARTCHAR boldparright.uni27EB
ENCODING 10219
SWIDTH 575 0
DWIDTH 17 0
BBX 9 27 4 -4
BITMAP
F800
7C00
7C00
7E00
3E00
3E00
3F00
3F00
1F00
1F80
1F80
1F80
1F80
1F80
1F80
1F80
1F80
1F80
1F00
3F00
3F00
3F00
3E00
7E00
7C00
7C00
F800
ENDCHAR
STARTCHAR xsuperior.uni02E3
ENCODING 739
SWIDTH 607 0
DWIDTH 17 0
BBX 11 11 2 11
BITMAP
E0E0
F1E0
71C0
3B80
1F00
0E00
1F00
3B80
71C0
F1E0
E0E0
ENDCHAR
STARTCHAR Sigma.uni03A3
ENCODING 931
SWIDTH 607 0
DWIDTH 17 0
BBX 14 22 2 0
BITMAP
FFF8
FFF8
FFF8
F800
7C00
3C00
1E00
0F00
0F80
07C0
03E0
03E0
07C0
0F80
1F00
3E00
7C00
F800
F000
FFFC
FFFC
FFFC
ENDCHAR
STARTCHAR mu.uni03BC
ENCODING 956
SWIDTH 607 0
DWIDTH 17 0
BBX 14 22 2 -6
BITMAP
F0F0
F0F0
F0F0
F0F0
F0F0
F0F0
F0F0
F0F0
F0F0
F0F0
F0F0
F0F0
F9F0
FFFC
FFBC
F71C
F000
F000
F000
F000
F000
F000
ENDCHAR
STARTCHAR theta.uni03B8
ENCODING 952
SWIDTH 607 0
DWIDTH 17 0
BBX 14 22 1 0
BITMAP
0FC0
1FE0
3FF0
7CF8
7878
7878
F03C
F03C
F03C
FFFC
FFFC
FFFC
F03C
F03C
F03C
F03C
7878
7878
7CF8
3FF0
1FE0
0FC0
ENDCHAR
STARTCHAR exponent.uni1D07
ENCODING 7431
SWIDTH 607 0
DWIDTH 17 0
BBX 11 16 4 0
BITMAP
FFE0
FFE0
FFE0
F000
F000
F000
FFC0
FFC0
FFC0
F000
F000
F000
F000
FFE0
FFE0
FFE0
ENDCHAR
STARTCHAR sigma.uni03C3
ENCODING 963
SWIDTH 607 0
DWIDTH 17 0
BBX 14 16 2 0
BITMAP
07FC
1FFC
3FFC
7DE0
78F0
F078
F078
F03C
F03C
F03C
F03C
7878
7CF8
3FF0
3FF0
0FC0
ENDCHAR
STARTCHAR uparrtipleft.uni21B0
ENCODING 8624
SWIDTH 786 0
DWIDTH 17 0
BBX 15 23 0 0
BITMAP
0600
0E00
1C00
3C00
7FF0
FFFC
7FFC
3C1E
1C0E
0E0E
060E
000E
000E
000E
000E
000E
000E
000E
000E
000E
000E
000E
000E
ENDCHAR
STARTCHAR uparrtipright.uni21B1
ENCODING 8625
SWIDTH 607 0
DWIDTH 17 0
BBX 15 23 2 0
BITMAP
00C0
00E0
0070
0078
1FFC
7FFE
7FFC
F078
E070
E0E0
E0C0
E000
E000
E000
E000
E000
E000
E000
E000
E000
E000
E000
E000
ENDCHAR
STARTCHAR carriagereturn.uni21B5
ENCODING 8629
SWIDTH 607 0
DWIDTH 17 0
BBX 15 19 0 1
BITMAP
000E
000E
000E
000E
000E
000E
000E
000E
060E
0E0E
1C0E
3C0E
7FFE
FFFE
7FFC
3C00
1C00
0E00
0600
ENDCHAR
STARTCHAR mesangle.uni2221
ENCODING 8737
SWIDTH 607 0
DWIDTH 17 0
BBX 15 21 1 0
BITMAP
0060
00F0
00E0
01E0
01C0
03C0
0380
0780
0700
0F00
0E00
1F80
1FC0
3FE0
38E0
7870
7070
F070
FFFE
FFFE
FFFE
ENDCHAR
STARTCHAR lf.uni240A
ENCODING 9226
SWIDTH 575 0
DWIDTH 17 0
BBX 15 24 1 -1
BITMAP
C000
C000
C000
C000
C000
C000
C000
C000
C000
FC00
FC00
0000
00FE
00FE
00C0
00C0
00C0
00FC
00FC
00C0
00C0
00C0
00C0
00C0
ENDCHAR
STARTCHAR esc.uni241B
ENCODING 9243
SWIDTH 575 0
DWIDTH 17 0
BBX 17 29 0 -5
BITMAP
F8000000
F8000000
C0000000
C0000000
F0000000
C0000000
C0000000
C0000000
F9E00000
FBF00000
03300000
03000000
01800000
00C00000
00600000
00300000
03300000
03F00000
01E00000
00070000
000F8000
001C8000
00180000
00180000
00180000
00180000
001C8000
000F8000
00070000
ENDCHAR
STARTCHAR bdlvr.uni251C
ENCODING 9500
SWIDTH 575 0
DWIDTH 17 0
BBX 10 27 4 -4
BITMAP
E000
E000
E000
E000
E000
E000
E000
E000
E000
E000
E000
E000
FFC0
FFC0
FFC0
E000
E000
E000
E000
E000
E000
E000
E000
E000
E000
E000
E000
ENDCHAR
STARTCHAR block.uni2588
ENCODING 9608
SWIDTH 607 0
DWIDTH 17 0
BBX 17 29 0 -5
BITMAP
FFFF8000
FFFF8000
FFFF8000
FFFF8000
FFFF8000
FFFF8000
FFFF8000
FFFF8000
FFFF8000
FFFF8000
FFFF8000
FFFF8000
FFFF8000
FFFF8000
FFFF8000
FFFF8000
FFFF8000
FFFF8000
FFFF8000
FFFF8000
FFFF8000
FFFF8000
FFFF8000
FFFF8000
FFFF8000
FFFF8000
FFFF8000
FFFF8000
FFFF8000
ENDCHAR
STARTCHAR shade.uni2592
ENCODING 9618
SWIDTH 575 0
DWIDTH 17 0
BBX 17 29 0 -5
BITMAP
55550000
00000000
AAAA8000
00000000
55550000
00000000
AAAA8000
00000000
55550000
00000000
AAAA8000
00000000
55550000
00000000
AAAA8000
00000000
55550000
00000000
AAAA8000
00000000
55550000
00000000
AAAA8000
00000000
55550000
00000000
AAAA8000
00000000
55550000
ENDCHAR
STARTCHAR filledbox.uni25A0
ENCODING 9632
SWIDTH 575 0
DWIDTH 17 0
BBX 11 13 3 2
BITMAP
FFE0
FFE0
FFE0
FFE0
FFE0
FFE0
FFE0
FFE0
FFE0
FFE0
FFE0
FFE0
FFE0
ENDCHAR
STARTCHAR triagup.uni25B2
ENCODING 9650
SWIDTH 575 0
DWIDTH 17 0
BBX 15 16 1 2
BITMAP
0100
0100
0380
0380
07C0
07C0
0FE0
0FE0
1FF0
1FF0
3FF8
3FF8
7FFC
7FFC
FFFE
FFFE
ENDCHAR
STARTCHAR triagright.uni25B6
ENCODING 9654
SWIDTH 575 0
DWIDTH 17 0
BBX 15 15 1 2
BITMAP
8000
E000
F800
FE00
FF80
FFE0
FFF8
FFFE
FFF8
FFE0
FF80
FE00
F800
E000
8000
ENDCHAR
STARTCHAR triagdn.uni25BC
ENCODING 9660
SWIDTH 575 0
DWIDTH 17 0
BBX 15 16 1 0
BITMAP
FFFE
FFFE
7FFC
7FFC
3FF8
3FF8
1FF0
1FF0
0FE0
0FE0
07C0
07C0
0380
0380
0100
0100
ENDCHAR
STARTCHAR triagleft.uni25C0
ENCODING 9664
SWIDTH 575 0
DWIDTH 17 0
BBX 15 15 1 2
BITMAP
0002
000E
003E
00FE
03FE
0FFE
3FFE
FFFE
3FFE
0FFE
03FE
00FE
003E
000E
0002
ENDCHAR
STARTCHAR germandblS.uni1E9E
ENCODING 7838
SWIDTH 575 0
DWIDTH 17 0
BBX 14 23 2 0
BITMAP
0FFC
3FF8
7FF8
7C70
F870
F0E0
F0E0
F1C0
F1C0
F380
F380
F7E0
F7F0
F7F8
F078
F07C
F03C
F03C
F03C
F47C
F7F8
F7F8
F3E0
ENDCHAR
STARTCHAR Gamma.uni0393
ENCODING 915
SWIDTH 575 0
DWIDTH 17 0
BBX 13 22 3 0
BITMAP
FFF8
FFF8
FFF8
F000
F000
F000
F000
F000
F000
F000
F000
F000
F000
F000
F000
F000
F000
F000
F000
F000
F000
F000
ENDCHAR
ENDFONT
